<svg width="1846" height="130" viewBox="0 0 1846 130" fill="none" xmlns="http://www.w3.org/2000/svg">
<path fill-rule="evenodd" clip-rule="evenodd" d="M270.288 96.8086V33.1815C270.288 12.876 284.61 0.732178 304.363 0.732178H476.023C495.777 0.732178 510.099 12.876 510.099 33.1815V96.8086C510.099 117.124 495.777 129.248 476.023 129.248H304.363C284.61 129.248 270.288 117.124 270.288 96.8086ZM0.93457 0.742029H211.382C231.5 0.742029 240.204 19.9534 240.204 37.7157V52.5801C240.204 75.0541 226.789 91.3773 203.408 91.3773H30.3085V129.248H0.93457V0.742029ZM541.819 0.742029H753.163C768.205 0.742029 781.985 10.7075 781.985 26.4787V59.8348C781.985 73.7924 771.103 81.2148 758.782 84.4873C776.544 92.8263 780.172 111.308 781.985 129.248H753.163C751.892 109.859 743.553 91.3773 721.266 91.3773H571.183V129.248H541.819V0.742029ZM1047.88 0.742029V26.4787H852.492C844.696 26.4787 841.433 32.0972 841.433 39.5294C841.433 46.5969 845.06 52.038 852.492 52.038H1011.82C1037.92 52.038 1052.06 64.5466 1052.06 91.1901C1052.06 113.487 1040.1 129.248 1016.91 129.248H816.613V103.511H1011.83C1018.53 103.511 1021.44 97.7154 1021.44 91.7321C1021.44 84.8618 1020 77.5972 1011.83 77.5972H846.332C824.942 77.5972 812.621 61.1064 812.621 40.6235C812.621 15.0643 826.391 0.751881 852.502 0.751881L1047.88 0.742029ZM1311.07 0.742029V26.4787H1118.21C1113.68 26.4787 1112.05 30.8256 1112.05 34.6403V97.1831C1112.05 100.998 1114.41 103.521 1118.21 103.521H1311.07V129.258H1118.21C1097.18 129.258 1082.88 114.758 1082.88 93.5459V38.455C1082.88 14.1673 1093.2 0.751881 1118.21 0.751881L1311.07 0.742029ZM1342.6 0.742029H1372.15V50.7664H1542.73V0.742029H1572.99V129.248H1542.73V76.5031H1372.15V129.248H1342.6V0.742029ZM1603.99 0.742029H1845.06V26.4787H1633.35V51.3184H1845.06V76.8678H1633.35V103.511H1845.06V129.248H1603.99V0.742029Z" fill="white"/>
<path fill-rule="evenodd" clip-rule="evenodd" d="M316.694 103.511H465.693C474.752 103.511 482.184 99.5292 482.184 89.1892V40.8011C482.184 30.4709 474.939 26.4788 465.693 26.4788H316.694C307.449 26.4788 300.016 30.4709 300.016 40.8011V89.1892C300.016 99.5292 307.626 103.511 316.694 103.511ZM30.3086 26.4788V65.6309H197.789C205.044 65.6309 211.382 62.733 211.382 54.5713V40.0815C211.382 31.565 206.306 26.4887 197.789 26.4887L30.3086 26.4788ZM571.183 26.4788V65.6309H745.918C751.714 65.6309 753.163 60.732 753.163 55.8429V38.4354C753.163 30.0963 750.088 26.469 741.562 26.469L571.183 26.4788Z" fill="black"/>
</svg>
