<svg xmlns="http://www.w3.org/2000/svg" viewBox="0 0 304.12 136.6"><path d="M305.83,88.68c0,.65-.08,1.36-.16,2.13L306,91h0a.27.27,0,0,1,.08.07c.31.35.06,2.55-.73,6.51a1.51,1.51,0,0,1-.93,1,1.06,1.06,0,0,0,0,.19l.32.15c.07,0,.33.24.21.8,0,.08-.05.25-.09.48a31.08,31.08,0,0,1-1.1,4.79,4.08,4.08,0,0,1-1.39,2,.79.79,0,0,0-.08.16l0,.05a23.75,23.75,0,0,1-2,2c-.07.18-.15.36-.22.53h0c-.18.45-.38.89-.6,1.33-.08.15-.15.32-.22.47a30.4,30.4,0,0,1-7.3,10c-3.06,2.66-8.76,5.18-12.16,6.68-2.64,1.17-7.82,3.14-11.24,4.44l-2.88,1.1a22.44,22.44,0,0,1-6.85,1.18c-.21.24-1.13.89-4.86,1-4.46.18-14.35.45-18.37.45s-13.91-.27-18.37-.45c-3.75-.15-4.66-.81-4.86-1l-2.83-.07a8.78,8.78,0,0,1-4.55-1.22l-.13-.07c-.66-.37-2.44-1.21-4.24-2.06l-2,0-4.95-.1c-2.48,0-4.57-.14-5.59-.27a12.86,12.86,0,0,1-3.38-1.31l-.74-.36a9.5,9.5,0,0,0-1.79-.64l-2.92,0c-13.85.29-38.77.87-42.11.94l2.07,5.26c.89,2,1.13,3.34.75,3.92a.68.68,0,0,1-.57.32h0c-.5,0-1,.06-1.45.06a12.33,12.33,0,0,1-6.74-1.78l-.05,0c-2.54-1.55-5.71-5.14-7.55-7.36-4.19.07-7.91.15-10.78.21-3.22.06-5.35.11-5.93.11a14.62,14.62,0,0,0-5.77,1,31.09,31.09,0,0,1-9.34,1.63c-3,.13-9.33.28-15.42.41l-5.85.14c-1.82,0-3.61.06-5.39.06-3.83,0-7.59-.09-11.38-.29,0,0-5.41-.12-8.39-.47,0,0-3.43-.49-5.95-1-.6-.12-1.26-.23-2-.34a23.35,23.35,0,0,1-7.42-2.09,19.13,19.13,0,0,1-4.63-3.21,18.4,18.4,0,0,1-2.5-1.75l-.1-.08a.55.55,0,0,1,0-1l.07-.06c-.44-.57-.9-1.2-1.39-1.9-3-4.24-9.16-13.25-11.13-17-.61-1.16-1.21-2.19-1.74-3.11a18.9,18.9,0,0,1-2.26-4.74c-.51-2.1-1.32-7-1.63-9.57a129.3,129.3,0,0,1-.9-15.64h0a129.71,129.71,0,0,1,.9-15.64c.31-2.55,1.12-7.47,1.63-9.57A19.23,19.23,0,0,1,8.5,41.55c.53-.91,1.13-1.95,1.74-3.1,2-3.76,8.14-12.76,11.13-17,.49-.71.95-1.33,1.39-1.9l-.1-.08h0a.62.62,0,0,1-.27-.43.58.58,0,0,1,.27-.52l.1-.09a18.4,18.4,0,0,1,2.5-1.75,19.1,19.1,0,0,1,4.63-3.2,23.35,23.35,0,0,1,7.42-2.09c.71-.11,1.37-.22,2-.34,2.52-.52,5.91-1,5.94-1,3-.34,8.36-.46,8.41-.46,5.53-.29,11-.37,16.76-.23l5.85.13c6.09.14,12.39.28,15.42.42A31.17,31.17,0,0,1,101,11.52a14.43,14.43,0,0,0,5.77,1c.58,0,2.71,0,5.93.11l10.78.21c1.85-2.24,5-5.82,7.55-7.37h0a12.34,12.34,0,0,1,6.76-1.79c.46,0,1,0,1.45,0h0a.67.67,0,0,1,.57.31c.38.59.13,1.87-.75,3.93l-2.07,5.25c3.34.08,28.25.66,42.12,1l2.91,0a9.72,9.72,0,0,0,1.79-.65c.23-.1.48-.23.74-.36A13.22,13.22,0,0,1,188,11.86c1-.12,3.11-.22,5.59-.26l4.95-.1,2,0c1.8-.85,3.58-1.7,4.24-2.06l.13-.08a9,9,0,0,1,4.55-1.22L212.3,8c.21-.24,1.11-.9,4.86-1,4.46-.18,14.35-.45,18.37-.45s13.91.27,18.37.45c3.73.14,4.65.8,4.86,1a22.74,22.74,0,0,1,6.85,1.17l2.88,1.11c3.42,1.3,8.6,3.27,11.24,4.44,3.4,1.5,9.1,4,12.16,6.68a30.29,30.29,0,0,1,7.3,10c.07.14.15.31.22.47.22.44.42.88.6,1.33h0l.22.52a25.31,25.31,0,0,1,2,2l0,.06s0,.1.08.16a4.1,4.1,0,0,1,1.4,2.05,31.4,31.4,0,0,1,1.09,4.77c0,.23.07.39.09.47.12.57-.14.76-.19.79l-.34.17a1.62,1.62,0,0,0,0,.19,1.5,1.5,0,0,1,.93,1c.79,4,1,6.16.73,6.52A.24.24,0,0,1,306,52h0l-.37.2c.08.76.14,1.48.16,2.13h0l.09.8c1,10.68,1.06,13.31,1.06,16.36s-.08,5.68-1.06,16.35l-.09.8Z" transform="translate(-3.28 -3.21)" fill="none" stroke="#000" stroke-linecap="round" stroke-linejoin="round" stroke-width="0.85"></path><path d="M114.88,121.43c-6.71-1.24-27.57-7.85-29.34-49.82" transform="translate(-3.28 -3.21)" fill="none" stroke="#000" stroke-linecap="round" stroke-linejoin="round" stroke-width="0.57"></path><path d="M116.16,121.39" transform="translate(-3.28 -3.21)" fill="none" stroke="#000" stroke-linecap="round" stroke-linejoin="round" stroke-width="0.57"></path><path d="M117,121.43c-.27,0-1.82,0-2.07,0" transform="translate(-3.28 -3.21)" fill="none" stroke="#000" stroke-linecap="round" stroke-linejoin="round" stroke-width="0.57"></path><path d="M94.89,88.73c.74,2.87,2.51,9.42,3.26,12l.65-.15c-4-13.86-8.7-35.22-8.7-35.22l-.65.15s2,8.74,4.06,17.38" transform="translate(-3.28 -3.21)" fill="none" stroke="#000" stroke-linecap="round" stroke-linejoin="round" stroke-width="0.43"></path><path d="M93.85,86.32s1.16,5.87,1.41,7.79c0,0,.25,2.23.55,5s.55,5.14.55,5.14.14,4.46.11,5.23" transform="translate(-3.28 -3.21)" fill="none" stroke="#000" stroke-linecap="round" stroke-linejoin="round" stroke-width="0.43"></path><path d="M98,109" transform="translate(-3.28 -3.21)" fill="none" stroke="#000" stroke-linecap="round" stroke-linejoin="round" stroke-width="0.43"></path><path d="M96.41,98.2s1.88,8.3,2,8.92a1.29,1.29,0,0,1-.11.73,3.74,3.74,0,0,0-.3,1.72,17,17,0,0,0,.3,2.17" transform="translate(-3.28 -3.21)" fill="none" stroke="#000" stroke-linecap="round" stroke-linejoin="round" stroke-width="0.43"></path><path d="M94.07,82.87l-.69.15-.28.34s.42,2.23.5,2.55a1.1,1.1,0,0,0,.33.43,5.24,5.24,0,0,0,.52.41s1,4.53,1.73,10l1.47,10.2a2.28,2.28,0,0,0-.23,1,7.23,7.23,0,0,0,0,2.71" transform="translate(-3.28 -3.21)" fill="none" stroke="#000" stroke-linecap="round" stroke-linejoin="round" stroke-width="0.43"></path><line x1="90.01" y1="80.15" x2="90.44" y2="80.09" fill="none" stroke="#000" stroke-linecap="round" stroke-linejoin="round" stroke-width="0.43"></line><line x1="90.76" y1="79.73" x2="90.6" y2="79.94" fill="none" stroke="#000" stroke-linecap="round" stroke-linejoin="round" stroke-width="0.43"></line><line x1="90.58" y1="80.3" x2="91.27" y2="83.29" fill="none" stroke="#000" stroke-linecap="round" stroke-linejoin="round" stroke-width="0.43"></line><path d="M99.37,40.57l-.51-.28s-.49-.28-.71.19-.93,2-.93,2l-.14.9-1,2.15.28.17.13.17.84-1.79.62-.73h.27Z" transform="translate(-3.28 -3.21)" fill="none" stroke="#000" stroke-linecap="round" stroke-linejoin="round" stroke-width="0.43"></path><line x1="94.61" y1="39.78" x2="95.57" y2="37.49" fill="none" stroke="#000" stroke-linecap="round" stroke-linejoin="round" stroke-width="0.43"></line><path d="M96.09,45.56s-1.37,2.8-6.41,14.77c0,0-3.36,6.64-3.81,7.49" transform="translate(-3.28 -3.21)" fill="none" stroke="#000" stroke-linecap="round" stroke-linejoin="round" stroke-width="0.43"></path><path d="M96.42,45.81S95.05,48.62,90,60.59l0,.28s-1.3,5.1-1.58,6a7.72,7.72,0,0,1-.87,2.26" transform="translate(-3.28 -3.21)" fill="none" stroke="#000" stroke-linecap="round" stroke-linejoin="round" stroke-width="0.43"></path><line x1="84.37" y1="64.04" x2="86.58" y2="57.66" fill="none" stroke="#000" stroke-linecap="round" stroke-linejoin="round" stroke-width="0.43"></line><path d="M97.38,44.06" transform="translate(-3.28 -3.21)" fill="none" stroke="#000" stroke-linecap="round" stroke-linejoin="round" stroke-width="0.43"></path><path d="M90.19,60.75l.48.22S100.21,38.07,108,26" transform="translate(-3.28 -3.21)" fill="none" stroke="#000" stroke-linecap="round" stroke-linejoin="round" stroke-width="0.43"></path><path d="M99.09,40.26c1.77-3.89,6.39-10.64,8.28-14.5L108,26" transform="translate(-3.28 -3.21)" fill="none" stroke="#000" stroke-linecap="round" stroke-linejoin="round" stroke-width="0.43"></path><path d="M87.66,68.58a7.18,7.18,0,0,0-.35,2.4,28.89,28.89,0,0,0,.26,3.1,3.29,3.29,0,0,1,0,1.39.86.86,0,0,1-1,.72c-.59,0-.74-.37-.74-.37" transform="translate(-3.28 -3.21)" fill="none" stroke="#000" stroke-linecap="round" stroke-linejoin="round" stroke-width="0.43"></path><line x1="83.52" y1="63.96" x2="84.01" y2="64.28" fill="none" stroke="#000" stroke-linecap="round" stroke-linejoin="round" stroke-width="0.43"></line><path d="M87.41,67.71s-.28.56.11.83" transform="translate(-3.28 -3.21)" fill="none" stroke="#000" stroke-linecap="round" stroke-linejoin="round" stroke-width="0.43"></path><path d="M87.21,75.24a.65.65,0,1,1-1.28-.15.65.65,0,1,1,1.28.15Z" transform="translate(-3.28 -3.21)" fill="none" stroke="#000" stroke-linecap="round" stroke-linejoin="round" stroke-width="0.43"></path><path d="M145.75,28.12" transform="translate(-3.28 -3.21)" fill="none" stroke="#000" stroke-linecap="round" stroke-linejoin="round" stroke-width="0.43"></path><path d="M99.42,15.55c0,1.71-3.3,2.9-7.16,2.67s-6.71-1.84-6.6-3.55,3-2.25,6.87-2S99.42,14,99.42,15.55Z" transform="translate(-3.28 -3.21)" fill="none" stroke="#000" stroke-linecap="round" stroke-linejoin="round" stroke-width="0.28"></path><path d="M263,15.87a25.26,25.26,0,0,1,8.72,1.25c4.06,1.5,9,3.12,13,5.91s6.24,4.48,8,6.71A36.55,36.55,0,0,1,297,36.23a12.23,12.23,0,0,1,1,2.67,1.73,1.73,0,0,1-.26,1.66c-.38.4-.62.63-.62.63a1.13,1.13,0,0,1-.59.2h-1.24" transform="translate(-3.28 -3.21)" fill="none" stroke="#000" stroke-linecap="round" stroke-linejoin="round" stroke-width="0.43"></path><path d="M295,40.21h1.13a.79.79,0,0,0,.33-.22,2.53,2.53,0,0,0,.34-.65,2.12,2.12,0,0,0,0-.64" transform="translate(-3.28 -3.21)" fill="none" stroke="#000" stroke-linecap="round" stroke-linejoin="round" stroke-width="0.43"></path><path d="M296.15,39.63A37.72,37.72,0,0,0,293,33.48c-1.95-3-2.35-3.88-6.18-6.69-3.17-2.33-4.55-3.3-7.2-4.39a20,20,0,0,0-6.55-1.69" transform="translate(-3.28 -3.21)" fill="none" stroke="#000" stroke-linecap="round" stroke-linejoin="round" stroke-width="0.28"></path><path d="M217.14,12.52c0,.61-.51,1.09-1.3,1.64a14.13,14.13,0,0,1-4.24,1.39,7,7,0,0,1-3.42,0,31.67,31.67,0,0,1-3.67-1.48,18.48,18.48,0,0,0-2.49-.73l-.57-.12s-.45-.12,0-.41a12.35,12.35,0,0,1,3.74-1.64,28.62,28.62,0,0,1,5.37-.67,15.16,15.16,0,0,1,4.57.64C216.38,11.58,217.14,12.27,217.14,12.52Z" transform="translate(-3.28 -3.21)" fill="none" stroke="#000" stroke-linecap="round" stroke-linejoin="round" stroke-width="0.28"></path><path d="M215.57,11.94a2.15,2.15,0,0,0-.9-.5,18.09,18.09,0,0,0-7.31-.66" transform="translate(-3.28 -3.21)" fill="none" stroke="#000" stroke-linecap="round" stroke-linejoin="round" stroke-width="0.28"></path><path d="M208.87,15.11a8.56,8.56,0,0,0,3.19-.28,11,11,0,0,0,2.7-1c.51-.3,1.08-.79,1.08-1.16a.94.94,0,0,0-.27-.72" transform="translate(-3.28 -3.21)" fill="none" stroke="#000" stroke-linecap="round" stroke-linejoin="round" stroke-width="0.57"></path><path d="M201.92,13.32a14.19,14.19,0,0,1,3.79.61,14.16,14.16,0,0,0,3.16,1.18" transform="translate(-3.28 -3.21)" fill="none" stroke="#000" stroke-linecap="round" stroke-linejoin="round" stroke-width="0.28"></path><path d="M207.31,13.52a3.13,3.13,0,0,1,2.26-1.34,21.67,21.67,0,0,1,6.22.67" transform="translate(-3.28 -3.21)" fill="none" stroke="#000" stroke-linecap="round" stroke-linejoin="round" stroke-width="0.57"></path><path d="M211.28,15a24.18,24.18,0,0,0-4.74-1.66" transform="translate(-3.28 -3.21)" fill="none" stroke="#000" stroke-linecap="round" stroke-linejoin="round" stroke-width="0.57"></path><path d="M197.22,13.82a33.94,33.94,0,0,0,5.4-2c2.7-1.29,4.55-2,6.42-2.16a18.91,18.91,0,0,1,5.9.44c1.44.46,3.25,1.19,3.25,2.25,0,1.25-1.93,2-3,2.52a41.33,41.33,0,0,1-5.66,1.69c-1.78.41-5,1.08-7.24,1.42a28.4,28.4,0,0,1-5.06.14" transform="translate(-3.28 -3.21)" fill="none" stroke="#000" stroke-linecap="round" stroke-linejoin="round" stroke-width="0.28"></path><path d="M273.44,71.5" transform="translate(-3.28 -3.21)" fill="none" stroke="#000" stroke-linecap="round" stroke-linejoin="round" stroke-width="0.43"></path><path d="M95.93,101.07A67,67,0,0,1,89.6,71.61" transform="translate(-3.28 -3.21)" fill="none" stroke="#000" stroke-linecap="round" stroke-linejoin="round" stroke-width="0.28"></path><path d="M112.18,120.78s-7.65-4.68-14-15.56" transform="translate(-3.28 -3.21)" fill="none" stroke="#000" stroke-linecap="round" stroke-linejoin="round" stroke-width="0.28"></path><path d="M212.57,26.54c-8.75-1.17-18.56-2.32-24.49-2.92-10.33-1-27.76-1.57-36.93-1.78-6.6-.14-22.3.4-31.5.48" transform="translate(-3.28 -3.21)" fill="none" stroke="#000" stroke-linecap="round" stroke-linejoin="round" stroke-width="0.57"></path><path d="M24.22,17.49" transform="translate(-3.28 -3.21)" fill="none" stroke="#000" stroke-linecap="round" stroke-linejoin="round" stroke-width="0.57"></path><path d="M32.08,13.5" transform="translate(-3.28 -3.21)" fill="none" stroke="#000" stroke-linecap="round" stroke-linejoin="round" stroke-width="0.57"></path><path d="M123.55,13.08c-8.91-.16-15.69-.32-16.78-.32a14.82,14.82,0,0,1-5.89-1,30.86,30.86,0,0,0-9.23-1.6c-4-.18-13.68-.37-21.27-.55s-13.4.06-16.74.23c0,0-5.38.12-8.38.46,0,0-3.38.48-5.92,1s-6.26.76-9.32,2.41-4.89,2.87-8.42,7.88-9.28,13.48-11.11,17-3.49,5.73-4,7.78-1.3,6.93-1.62,9.54A127.75,127.75,0,0,0,4,71.5" transform="translate(-3.28 -3.21)" fill="none" stroke="#000" stroke-linecap="round" stroke-linejoin="round" stroke-width="0.57"></path><path d="M14,46.27l.12-.08a3.34,3.34,0,0,1,.6-.29c1.74-.65,41.32-14.15,80-20.29,0,0,6.23-.83,11.29-1" transform="translate(-3.28 -3.21)" fill="none" stroke="#000" stroke-linecap="round" stroke-linejoin="round" stroke-width="0.57"></path><path d="M10.25,71.51c0-15,2.68-23.21,2.68-23.21s.52-1.74,1.1-2" transform="translate(-3.28 -3.21)" fill="none" stroke="#000" stroke-linecap="round" stroke-linejoin="round" stroke-width="0.57"></path><path d="M51.69,10c-.75.07-3.67,1-3.67,1C44,12.35,37.86,14.69,33.67,16.39,29.81,18,26.5,21.87,22.61,28.16,19,34,14.17,45.41,14.17,45.41s-.28.73-.32,1" transform="translate(-3.28 -3.21)" fill="none" stroke="#000" stroke-linecap="round" stroke-linejoin="round" stroke-width="0.43"></path><path d="M283,25.14" transform="translate(-3.28 -3.21)" fill="none" stroke="#000" stroke-linecap="round" stroke-linejoin="round" stroke-width="0.43"></path><path d="M145.75,28.12" transform="translate(-3.28 -3.21)" fill="none" stroke="#000" stroke-linecap="round" stroke-linejoin="round" stroke-width="0.43"></path><path d="M114.88,21.58c-6.71,1.24-27.57,7.84-29.34,49.81" transform="translate(-3.28 -3.21)" fill="none" stroke="#000" stroke-linecap="round" stroke-linejoin="round" stroke-width="0.57"></path><path d="M116.16,21.62" transform="translate(-3.28 -3.21)" fill="none" stroke="#000" stroke-linecap="round" stroke-linejoin="round" stroke-width="0.57"></path><path d="M117,21.58c-.27,0-1.82,0-2.07,0" transform="translate(-3.28 -3.21)" fill="none" stroke="#000" stroke-linecap="round" stroke-linejoin="round" stroke-width="0.57"></path><path d="M216.05,25.63c-9.32-1.2-20.51-2.42-27-3.08-10.33-1-27.77-1.56-36.93-1.77-7.68-.18-26.46.32-35.13.8" transform="translate(-3.28 -3.21)" fill="none" stroke="#000" stroke-linecap="round" stroke-linejoin="round" stroke-width="0.28"></path><path d="M232.37,28.33" transform="translate(-3.28 -3.21)" fill="none" stroke="#000" stroke-linecap="round" stroke-linejoin="round" stroke-width="0.28"></path><path d="M234.53,29.81" transform="translate(-3.28 -3.21)" fill="none" stroke="#000" stroke-linecap="round" stroke-linejoin="round" stroke-width="0.28"></path><path d="M117,21.6l24.8,6.51s9.2,2.5,13.11,3.17a152,152,0,0,0,18.81,1.25c13.13,0,18.92-.88,18.92-.88s6.52-1.27,10.6-2.39,10.18-3.1,12.77-3.51a5,5,0,0,1,1.54.05c1.07.15,14.27,1.6,20,3.17s10,2.62,12.13,5.75a24.46,24.46,0,0,1,4,11.31s1.25,11.38,1.25,25.41" transform="translate(-3.28 -3.21)" fill="none" stroke="#000" stroke-linecap="round" stroke-linejoin="round" stroke-width="0.57"></path><path d="M51.56,20.55c10.27-.54,34.68-1.72,57.15-1.87" transform="translate(-3.28 -3.21)" fill="none" stroke="#000" stroke-linecap="round" stroke-linejoin="round" stroke-width="0.28"></path><path d="M12.71,55.34S48.22,52,88.15,49.1" transform="translate(-3.28 -3.21)" fill="none" stroke="#000" stroke-linecap="round" stroke-linejoin="round" stroke-width="0.28"></path><path d="M128.1,71.39a2.7,2.7,0,0,1,2.72-2.67l.26-.21V65a2.56,2.56,0,0,1,1.76-2.72c.74-.22,5.83-1.37,5.83-1.37.18-10.87,2-25.26,2.11-25.83s-.24-.69-.24-.69-26.74-6-28.15-6.28a2,2,0,0,0-2,.41A71.25,71.25,0,0,0,96,71.39" transform="translate(-3.28 -3.21)" fill="none" stroke="#000" stroke-linecap="round" stroke-linejoin="round" stroke-width="0.28"></path><path d="M18.34,71.5a5.21,5.21,0,0,0-.24-1.8h-2s-1.73.34-1.73,1.8" transform="translate(-3.28 -3.21)" fill="none" stroke="#000" stroke-linecap="round" stroke-linejoin="round" stroke-width="0.43"></path><path d="M187.49,23.66s.16,0,5.1,8" transform="translate(-3.28 -3.21)" fill="none" stroke="#000" stroke-linecap="round" stroke-linejoin="round" stroke-width="0.43"></path><path d="M130.94,16.77a2.55,2.55,0,0,1-2.41,1.64h-4a2.43,2.43,0,0,1-2.28-3.56s5.24-6.9,9-9.18" transform="translate(-3.28 -3.21)" fill="none" stroke="#000" stroke-linecap="round" stroke-linejoin="round" stroke-width="0.57"></path><path d="M136.49,13.86c-1.1,2.61-1.84,2.7-1.84,2.7l-9.73.59a1.77,1.77,0,0,1-1.8-1.73,2,2,0,0,1,0-.35,17.72,17.72,0,0,1,4-5.86c3.13-3.29,6.08-5.7,12.16-5.23,0,0,1.36-.26-.4,3.84Z" transform="translate(-3.28 -3.21)" fill="none" stroke="#000" stroke-linecap="round" stroke-linejoin="round" stroke-width="0.57"></path><path d="M111.3,23.28s29.49,8.49,30.94,8.83,2.71,1.1,1.84,5.52c-.91,4.65-3.33,10.38-3.33,33.73" transform="translate(-3.28 -3.21)" fill="none" stroke="#000" stroke-linecap="round" stroke-linejoin="round" stroke-width="0.57"></path><path d="M192.65,15.25" transform="translate(-3.28 -3.21)" fill="none" stroke="#000" stroke-linecap="round" stroke-linejoin="round" stroke-width="0.43"></path><path d="M188.27,23.66s4.32-5,4.32-8.22c0,0,0-.63-1.15-.84" transform="translate(-3.28 -3.21)" fill="none" stroke="#000" stroke-linecap="round" stroke-linejoin="round" stroke-width="0.43"></path><path d="M39.34,14.15a5,5,0,0,0,2.75-.33l10.07-3.9" transform="translate(-3.28 -3.21)" fill="none" stroke="#000" stroke-linecap="round" stroke-linejoin="round" stroke-width="0.43"></path><path d="M114.88,21.58s-1.27-.24-8.32-8.71" transform="translate(-3.28 -3.21)" fill="none" stroke="#000" stroke-linecap="round" stroke-linejoin="round" stroke-width="0.57"></path><path d="M136.68,13.39s27.52.64,42.49.95c0,0,4.33.07,6.2.13a49.91,49.91,0,0,0,6.92,0,21.93,21.93,0,0,0,6.07-1.74c2.22-1.06,5.58-2.62,6.53-3.14a8.73,8.73,0,0,1,4.59-1.28S223.39,8,226,8h21.27c4.66,0,9,.17,11.38.24a22.22,22.22,0,0,1,6.88,1.17c1.77.7,10.44,3.92,14.12,5.54s9.13,4.07,12.1,6.65A30.41,30.41,0,0,1,299,31.49a74.19,74.19,0,0,1,6.7,23.68c1,10.68,1.06,13.31,1.06,16.34" transform="translate(-3.28 -3.21)" fill="none" stroke="#000" stroke-linecap="round" stroke-linejoin="round" stroke-width="0.43"></path><path d="M45.83,20.55c-1.76-3.06-5.57-3.66-10.95-.49-4.35,2.57-6.5,7-4.81,9.83S36.66,33,41,30.38,47.48,23.42,45.83,20.55Z" transform="translate(-3.28 -3.21)" fill="none" stroke="#000" stroke-linecap="round" stroke-linejoin="round" stroke-width="0.28"></path><path d="M32.33,31.73c2.46,1.17,6.28.87,9.73-1.17C46.72,27.79,49,23.11,47.22,20c-1.88-3.27-6-3.91-11.72-.52a14.47,14.47,0,0,0-2.94,2.28" transform="translate(-3.28 -3.21)" fill="none" stroke="#000" stroke-linecap="round" stroke-linejoin="round" stroke-width="0.28"></path><path d="M50.24,20.26c-1.81-3.94-6.59-5.33-13.87-1.89-5.9,2.8-9.15,8.34-7.49,12.06,1.39,3.09,7.6,4.17,13.5,1.36S51.93,24,50.24,20.26Z" transform="translate(-3.28 -3.21)" fill="none" stroke="#000" stroke-linecap="round" stroke-linejoin="round" stroke-width="0.28"></path><path d="M39.14,33a43.23,43.23,0,0,1-4.89,1c-4.75.7-8.83-.79-9.7-3.3-1.11-3.19,1.42-7.39,5.95-10a41.54,41.54,0,0,1,9.23-4.26S45.61,14.5,48.55,18" transform="translate(-3.28 -3.21)" fill="none" stroke="#000" stroke-linecap="round" stroke-linejoin="round" stroke-width="0.28"></path><path d="M42.86,28.81a1.57,1.57,0,0,1-.61-.58c-.31-.48-.37-1-.15-1.13s.66.13,1,.6a1.71,1.71,0,0,1,.27.66" transform="translate(-3.28 -3.21)" fill="none" stroke="#000" stroke-linecap="round" stroke-linejoin="round" stroke-width="0.28"></path><path d="M42.11,21.47c.39-.57.88-.92,1.1-.77s.09.73-.29,1.31-.88.92-1.1.78S41.73,22.05,42.11,21.47Z" transform="translate(-3.28 -3.21)" fill="none" stroke="#000" stroke-linecap="round" stroke-linejoin="round" stroke-width="0.28"></path><polyline points="38.97 25.02 37.45 24.41 37.36 18.98 38.69 18.31" fill="none" stroke="#000" stroke-linecap="round" stroke-linejoin="round" stroke-width="0.28"></polyline><polyline points="39.37 23.71 40.2 23.32 40.2 20.05 39.23 19.61" fill="none" stroke="#000" stroke-linecap="round" stroke-linejoin="round" stroke-width="0.28"></polyline><path d="M42,26.92a1.39,1.39,0,0,1-.37-.9V23.63A.75.75,0,0,1,42,23" transform="translate(-3.28 -3.21)" fill="none" stroke="#000" stroke-linecap="round" stroke-linejoin="round" stroke-width="0.28"></path><line x1="38.97" y1="23.86" x2="41.14" y2="23.97" fill="none" stroke="#000" stroke-linecap="round" stroke-linejoin="round" stroke-width="0.28"></line><line x1="39.72" y1="17.45" x2="42.34" y2="17.34" fill="none" stroke="#000" stroke-linecap="round" stroke-linejoin="round" stroke-width="0.28"></line><path d="M43.32,23a6.74,6.74,0,0,1,2.73-.53" transform="translate(-3.28 -3.21)" fill="none" stroke="#000" stroke-linecap="round" stroke-linejoin="round" stroke-width="0.28"></path><path d="M43.66,23.88s2.16-.62,2.39-.72" transform="translate(-3.28 -3.21)" fill="none" stroke="#000" stroke-linecap="round" stroke-linejoin="round" stroke-width="0.28"></path><path d="M43.34,20.65a3.52,3.52,0,0,1,1.7-1" transform="translate(-3.28 -3.21)" fill="none" stroke="#000" stroke-linecap="round" stroke-linejoin="round" stroke-width="0.28"></path><path d="M41.78,21.61s-.23-.36-1.58-.41-5.45-.27-5.45-.27" transform="translate(-3.28 -3.21)" fill="none" stroke="#000" stroke-linecap="round" stroke-linejoin="round" stroke-width="0.28"></path><path d="M31.72,30.31l7.14-1.22A19.65,19.65,0,0,0,42,28.33" transform="translate(-3.28 -3.21)" fill="none" stroke="#000" stroke-linecap="round" stroke-linejoin="round" stroke-width="0.28"></path><path d="M31.06,29.69,39,27.94a1.41,1.41,0,0,0,1-1.39V23a1.21,1.21,0,0,0-1.1-1.13c-1.07-.16-4.73-.35-4.73-.35" transform="translate(-3.28 -3.21)" fill="none" stroke="#000" stroke-linecap="round" stroke-linejoin="round" stroke-width="0.28"></path><path d="M44,19.89c-1.87-1.6-4.89-1.58-8.79.72s-5.76,6.33-4.18,9,6.09,3.08,10,.77" transform="translate(-3.28 -3.21)" fill="none" stroke="#000" stroke-linecap="round" stroke-linejoin="round" stroke-width="0.28"></path><path d="M23.11,19.56l-.31-.26s-.45-.26,0-.62a17,17,0,0,1,2.87-2" transform="translate(-3.28 -3.21)" fill="none" stroke="#000" stroke-linecap="round" stroke-linejoin="round" stroke-width="0.43"></path><path d="M298.76,71.44a117.58,117.58,0,0,0-2.31-24.16A48.89,48.89,0,0,0,291.73,34a18.2,18.2,0,0,0-3.49-4.76c-.84-.73-3.58-2.42-4.33-2.89A2.28,2.28,0,0,0,282,26c-.73.14-1.2,1.61-1.2,1.61-.77,2.76-1.62,8.55-1.76,9.6a2,2,0,0,0,.57,1.86,23.45,23.45,0,0,1,1.62,2.45A16,16,0,0,1,282.29,45a158.54,158.54,0,0,1,2.81,26.49" transform="translate(-3.28 -3.21)" fill="none" stroke="#000" stroke-linecap="round" stroke-linejoin="round" stroke-width="0.57"></path><path d="M266.21,9.67a24.38,24.38,0,0,0,6,3.87c3.92,1.83,10.46,4.8,13.38,6.35s11.55,6.55,14.18,13.38" transform="translate(-3.28 -3.21)" fill="none" stroke="#000" stroke-linecap="round" stroke-linejoin="round" stroke-width="0.43"></path><path d="M246.44,8s8.68,4,12.67,6,8.58,4.06,12.18,5.86,7.35,3.65,9.23,4.78,2.07,1.27,2.07,1.27" transform="translate(-3.28 -3.21)" fill="none" stroke="#000" stroke-linecap="round" stroke-linejoin="round" stroke-width="0.43"></path><path d="M297.29,41.85s3.87,9.72,3.87,29.63" transform="translate(-3.28 -3.21)" fill="none" stroke="#000" stroke-linecap="round" stroke-linejoin="round" stroke-width="0.28"></path><path d="M279.86,38.07a31.9,31.9,0,0,1,7.84,1.15" transform="translate(-3.28 -3.21)" fill="none" stroke="#000" stroke-linecap="round" stroke-linejoin="round" stroke-width="0.28"></path><path d="M266.77,71.44c0-20.85-2.16-29.1-2.25-30a2.9,2.9,0,0,1,.18-1.93,1.57,1.57,0,0,1,1.32-.73c.25,0,.59,0,1.05,0,1.83-.09,8.63.26,8.63.26l-.09-1s-.17-2.18-.19-2.82a11.3,11.3,0,0,1,.66-5A29.77,29.77,0,0,1,279,24.52l.27-.57" transform="translate(-3.28 -3.21)" fill="none" stroke="#000" stroke-linecap="round" stroke-linejoin="round" stroke-width="0.57"></path><path d="M276.1,37.79l2.46.15" transform="translate(-3.28 -3.21)" fill="none" stroke="#000" stroke-linecap="round" stroke-linejoin="round" stroke-width="0.28"></path><path d="M212.49,8.25s.5-.81,4.68-1,14.26-.45,18.36-.45" transform="translate(-3.28 -3.21)" fill="none" stroke="#000" stroke-linecap="round" stroke-linejoin="round" stroke-width="0.57"></path><path d="M258.57,8.25s-.5-.81-4.68-1-14.27-.45-18.36-.45" transform="translate(-3.28 -3.21)" fill="none" stroke="#000" stroke-linecap="round" stroke-linejoin="round" stroke-width="0.57"></path><path d="M258.19,8.25" transform="translate(-3.28 -3.21)" fill="none" stroke="#000" stroke-linecap="round" stroke-linejoin="round" stroke-width="0.28"></path><path d="M181.82,14.39a9.67,9.67,0,0,0,2.12-.73A17.69,17.69,0,0,1,188,12c1.14-.14,3.47-.23,5.57-.26l7.17-.15" transform="translate(-3.28 -3.21)" fill="none" stroke="#000" stroke-linecap="round" stroke-linejoin="round" stroke-width="0.28"></path><path d="M184.49,14.47s1.27-.67,2-1.13a7.93,7.93,0,0,1,3.63-1.17c1.41,0,8.49-.21,9.82-.21" transform="translate(-3.28 -3.21)" fill="none" stroke="#000" stroke-linecap="round" stroke-linejoin="round" stroke-width="0.28"></path><path d="M282.29,41.71s3.81.12,7.53.54" transform="translate(-3.28 -3.21)" fill="none" stroke="#000" stroke-linecap="round" stroke-linejoin="round" stroke-width="0.28"></path><path d="M272.25,71.51" transform="translate(-3.28 -3.21)" fill="none" stroke="#000" stroke-linecap="round" stroke-linejoin="round" stroke-width="0.43"></path><path d="M278.43,43c-1-2.79-2.55-3-2.55-3l-8-.16.09.53a.36.36,0,0,1,.11,0" transform="translate(-3.28 -3.21)" fill="none" stroke="#000" stroke-linecap="round" stroke-linejoin="round" stroke-width="0.43"></path><path d="M268,40.32l7.77.12A3.88,3.88,0,0,1,278.43,43s2.78,7.6,3.54,28.58" transform="translate(-3.28 -3.21)" fill="none" stroke="#000" stroke-linecap="round" stroke-linejoin="round" stroke-width="0.43"></path><line x1="265.04" y1="38.41" x2="273.8" y2="38.86" fill="none" stroke="#000" stroke-linecap="round" stroke-linejoin="round" stroke-width="0.43"></line><line x1="265.69" y1="41.34" x2="274.88" y2="41.74" fill="none" stroke="#000" stroke-linecap="round" stroke-linejoin="round" stroke-width="0.43"></line><line x1="266.22" y1="44.32" x2="275.76" y2="44.62" fill="none" stroke="#000" stroke-linecap="round" stroke-linejoin="round" stroke-width="0.43"></line><line x1="266.59" y1="47.26" x2="276.38" y2="47.51" fill="none" stroke="#000" stroke-linecap="round" stroke-linejoin="round" stroke-width="0.43"></line><line x1="266.92" y1="50.29" x2="276.66" y2="50.41" fill="none" stroke="#000" stroke-linecap="round" stroke-linejoin="round" stroke-width="0.43"></line><line x1="267.23" y1="53.27" x2="277.2" y2="53.39" fill="none" stroke="#000" stroke-linecap="round" stroke-linejoin="round" stroke-width="0.43"></line><line x1="267.58" y1="56.2" x2="277.41" y2="56.32" fill="none" stroke="#000" stroke-linecap="round" stroke-linejoin="round" stroke-width="0.43"></line><line x1="267.79" y1="59.16" x2="277.66" y2="59.28" fill="none" stroke="#000" stroke-linecap="round" stroke-linejoin="round" stroke-width="0.43"></line><line x1="267.87" y1="62.31" x2="277.74" y2="62.31" fill="none" stroke="#000" stroke-linecap="round" stroke-linejoin="round" stroke-width="0.43"></line><line x1="267.87" y1="65.24" x2="278.05" y2="65.24" fill="none" stroke="#000" stroke-linecap="round" stroke-linejoin="round" stroke-width="0.43"></line><line x1="267.91" y1="68.3" x2="278.09" y2="68.3" fill="none" stroke="#000" stroke-linecap="round" stroke-linejoin="round" stroke-width="0.43"></line><path d="M278.12,71.51" transform="translate(-3.28 -3.21)" fill="none" stroke="#000" stroke-linecap="round" stroke-linejoin="round" stroke-width="0.43"></path><path d="M275.19,42.41" transform="translate(-3.28 -3.21)" fill="none" stroke="#000" stroke-linecap="round" stroke-linejoin="round" stroke-width="0.43"></path><path d="M300.06,33.85s1.9,1.79,2,2a10.53,10.53,0,0,1,.88,2.43,137.38,137.38,0,0,1,2.49,13.81c.09.8.15,1.56.18,2.26" transform="translate(-3.28 -3.21)" fill="none" stroke="#000" stroke-linecap="round" stroke-linejoin="round" stroke-width="0.43"></path><path d="M305.44,52.09l.5-.26s.52,0-.76-6.36a1.33,1.33,0,0,0-.91-.92" transform="translate(-3.28 -3.21)" fill="none" stroke="#000" stroke-linecap="round" stroke-linejoin="round" stroke-width="0.43"></path><path d="M304.18,44.1l.47-.23s.18-.12.09-.56a36.93,36.93,0,0,0-1.18-5.24,3.78,3.78,0,0,0-1.36-2" transform="translate(-3.28 -3.21)" fill="none" stroke="#000" stroke-linecap="round" stroke-linejoin="round" stroke-width="0.43"></path><path d="M89.73,67c-.08,1.44-.13,2.91-.13,4.42" transform="translate(-3.28 -3.21)" fill="none" stroke="#000" stroke-linecap="round" stroke-linejoin="round" stroke-width="0.28"></path><path d="M90.3,61c-.2,1.43-.36,2.91-.47,4.43" transform="translate(-3.28 -3.21)" fill="none" stroke="#000" stroke-linecap="round" stroke-linejoin="round" stroke-width="0.28"></path><path d="M112.18,22.23s-16.54,10.13-21.3,35.2" transform="translate(-3.28 -3.21)" fill="none" stroke="#000" stroke-linecap="round" stroke-linejoin="round" stroke-width="0.28"></path><path d="M267.93,40.32s2.94,11.53,2.94,31.25" transform="translate(-3.28 -3.21)" fill="none" stroke="#000" stroke-linecap="round" stroke-linejoin="round" stroke-width="0.43"></path><path d="M221.72,71.6s-.11-18.06,0-24.07c0,0-.32-5.62,5.18-5.69S238.27,42,241.21,43s5.94,3.16,6.5,7.73a152.77,152.77,0,0,1,1.13,20.72" transform="translate(-3.28 -3.21)" fill="none" stroke="#000" stroke-linecap="round" stroke-linejoin="round" stroke-width="0.57"></path><path d="M148.77,36.11s7,1.84,20.5,2.54,47.5,1.42,59.75,1.18c0,0,16.75.21,21.75.05" transform="translate(-3.28 -3.21)" fill="none" stroke="#000" stroke-linecap="round" stroke-linejoin="round" stroke-width="0.28"></path><path d="M216.4,25.63s-2.75.06-1-1.68,4.71-4.55,7.62-5.77,6.17-1.85,11.92-1.88a55.92,55.92,0,0,1,12.15,1.38A129.17,129.17,0,0,1,277,28.09" transform="translate(-3.28 -3.21)" fill="none" stroke="#000" stroke-linecap="round" stroke-linejoin="round" stroke-width="0.57"></path><path d="M149,30s-.44.14-.44.85a13.73,13.73,0,0,1-.5,3c-.42,1.92-1.29,7-1.79,11a212.63,212.63,0,0,0-1.5,26.76" transform="translate(-3.28 -3.21)" fill="none" stroke="#000" stroke-linecap="round" stroke-linejoin="round" stroke-width="0.43"></path><path d="M275.19,37.38s-7.5-.45-8.75-.5a3.29,3.29,0,0,0-2.91.91c-.8.87-.73,1.72-.63,3s.63,4.17.63,4.17,1.68,10,1.68,26.58" transform="translate(-3.28 -3.21)" fill="none" stroke="#000" stroke-linecap="round" stroke-linejoin="round" stroke-width="0.28"></path><path d="M275.7,39s3.56.26,4.6,1.11" transform="translate(-3.28 -3.21)" fill="none" stroke="#000" stroke-linecap="round" stroke-linejoin="round" stroke-width="0.57"></path><path d="M145.75,114.9" transform="translate(-3.28 -3.21)" fill="none" stroke="#000" stroke-linecap="round" stroke-linejoin="round" stroke-width="0.43"></path><path d="M263,127.14a25,25,0,0,0,8.72-1.25c4.06-1.49,9-3.12,13-5.91s6.24-4.48,8-6.7a36.58,36.58,0,0,0,4.13-6.5,12,12,0,0,0,1-2.66,1.75,1.75,0,0,0-.26-1.67c-.38-.4-.62-.62-.62-.62a1,1,0,0,0-.59-.2h-1.24" transform="translate(-3.28 -3.21)" fill="none" stroke="#000" stroke-linecap="round" stroke-linejoin="round" stroke-width="0.43"></path><path d="M295,102.81h1.13a.73.73,0,0,1,.33.21,2.59,2.59,0,0,1,.34.66,2.05,2.05,0,0,1,0,.63" transform="translate(-3.28 -3.21)" fill="none" stroke="#000" stroke-linecap="round" stroke-linejoin="round" stroke-width="0.43"></path><path d="M296.15,103.38a37.6,37.6,0,0,1-3.14,6.16c-1.95,3-2.35,3.88-6.18,6.68a30.36,30.36,0,0,1-7.2,4.4,20.22,20.22,0,0,1-6.55,1.69" transform="translate(-3.28 -3.21)" fill="none" stroke="#000" stroke-linecap="round" stroke-linejoin="round" stroke-width="0.28"></path><path d="M217.14,130.5c0-.62-.51-1.09-1.3-1.64a14.1,14.1,0,0,0-4.24-1.4,7.09,7.09,0,0,0-3.42,0,33.79,33.79,0,0,0-3.67,1.49,18.38,18.38,0,0,1-2.49.72l-.57.12s-.45.13,0,.41a12.35,12.35,0,0,0,3.74,1.64,27.81,27.81,0,0,0,5.37.67,15.17,15.17,0,0,0,4.57-.63C216.38,131.44,217.14,130.75,217.14,130.5Z" transform="translate(-3.28 -3.21)" fill="none" stroke="#000" stroke-linecap="round" stroke-linejoin="round" stroke-width="0.28"></path><path d="M215.57,131.08a2.15,2.15,0,0,1-.9.5,18.28,18.28,0,0,1-7.31.66" transform="translate(-3.28 -3.21)" fill="none" stroke="#000" stroke-linecap="round" stroke-linejoin="round" stroke-width="0.28"></path><path d="M208.87,127.91a8.35,8.35,0,0,1,3.19.28,10.68,10.68,0,0,1,2.7,1c.51.3,1.08.8,1.08,1.17a1,1,0,0,1-.27.72" transform="translate(-3.28 -3.21)" fill="none" stroke="#000" stroke-linecap="round" stroke-linejoin="round" stroke-width="0.57"></path><path d="M201.92,129.69a14.48,14.48,0,0,0,3.79-.6,13.68,13.68,0,0,1,3.16-1.18" transform="translate(-3.28 -3.21)" fill="none" stroke="#000" stroke-linecap="round" stroke-linejoin="round" stroke-width="0.28"></path><path d="M207.31,129.49a3.16,3.16,0,0,0,2.26,1.35,22.4,22.4,0,0,0,6.22-.67" transform="translate(-3.28 -3.21)" fill="none" stroke="#000" stroke-linecap="round" stroke-linejoin="round" stroke-width="0.57"></path><path d="M211.28,128a23.48,23.48,0,0,1-4.74,1.66" transform="translate(-3.28 -3.21)" fill="none" stroke="#000" stroke-linecap="round" stroke-linejoin="round" stroke-width="0.57"></path><path d="M197.22,129.19a34.59,34.59,0,0,1,5.4,2,18.34,18.34,0,0,0,6.42,2.15,18.61,18.61,0,0,0,5.9-.44c1.44-.46,3.25-1.18,3.25-2.24,0-1.25-1.93-2-3-2.52a42.67,42.67,0,0,0-5.66-1.7c-1.78-.4-5-1.08-7.24-1.41a27.39,27.39,0,0,0-5.06-.14" transform="translate(-3.28 -3.21)" fill="none" stroke="#000" stroke-linecap="round" stroke-linejoin="round" stroke-width="0.28"></path><path d="M273.44,71.52" transform="translate(-3.28 -3.21)" fill="none" stroke="#000" stroke-linecap="round" stroke-linejoin="round" stroke-width="0.43"></path><path d="M212.57,116.48c-8.75,1.17-18.56,2.32-24.49,2.92-10.33,1-27.76,1.56-36.93,1.77-6.6.15-22.3-.39-31.5-.47" transform="translate(-3.28 -3.21)" fill="none" stroke="#000" stroke-linecap="round" stroke-linejoin="round" stroke-width="0.57"></path><path d="M24.22,125.52" transform="translate(-3.28 -3.21)" fill="none" stroke="#000" stroke-linecap="round" stroke-linejoin="round" stroke-width="0.57"></path><path d="M32.08,129.51" transform="translate(-3.28 -3.21)" fill="none" stroke="#000" stroke-linecap="round" stroke-linejoin="round" stroke-width="0.57"></path><path d="M123.55,129.93c-8.91.17-15.69.32-16.78.32a15,15,0,0,0-5.89,1,31.1,31.1,0,0,1-9.23,1.61c-4,.17-13.68.36-21.27.55s-13.4-.06-16.74-.24c0,0-5.38-.11-8.38-.46,0,0-3.38-.48-5.92-1s-6.26-.75-9.32-2.4-4.89-2.87-8.42-7.88-9.28-13.49-11.11-17-3.49-5.73-4-7.79-1.3-6.92-1.62-9.53A128,128,0,0,1,4,71.51" transform="translate(-3.28 -3.21)" fill="none" stroke="#000" stroke-linecap="round" stroke-linejoin="round" stroke-width="0.57"></path><path d="M14,96.75l.12.07a3.34,3.34,0,0,0,.6.29c1.74.66,41.32,14.16,80,20.29,0,0,6.23.84,11.29,1" transform="translate(-3.28 -3.21)" fill="none" stroke="#000" stroke-linecap="round" stroke-linejoin="round" stroke-width="0.57"></path><path d="M10.25,71.51c0,15,2.68,23.2,2.68,23.2s.52,1.75,1.1,2" transform="translate(-3.28 -3.21)" fill="none" stroke="#000" stroke-linecap="round" stroke-linejoin="round" stroke-width="0.57"></path><path d="M51.69,133.05a36.12,36.12,0,0,1-3.67-1c-4.05-1.43-10.16-3.77-14.35-5.47-3.86-1.57-7.17-5.48-11.06-11.78C19,109,14.17,97.61,14.17,97.61s-.28-.74-.32-1" transform="translate(-3.28 -3.21)" fill="none" stroke="#000" stroke-linecap="round" stroke-linejoin="round" stroke-width="0.43"></path><path d="M283,117.87" transform="translate(-3.28 -3.21)" fill="none" stroke="#000" stroke-linecap="round" stroke-linejoin="round" stroke-width="0.43"></path><path d="M145.75,114.89" transform="translate(-3.28 -3.21)" fill="none" stroke="#000" stroke-linecap="round" stroke-linejoin="round" stroke-width="0.43"></path><path d="M116.16,121.39" transform="translate(-3.28 -3.21)" fill="none" stroke="#000" stroke-linecap="round" stroke-linejoin="round" stroke-width="0.57"></path><path d="M117,121.44c-.27,0-1.82,0-2.07,0" transform="translate(-3.28 -3.21)" fill="none" stroke="#000" stroke-linecap="round" stroke-linejoin="round" stroke-width="0.57"></path><path d="M216.05,117.39c-9.32,1.2-20.51,2.42-27,3.07-10.33,1.05-27.77,1.57-36.93,1.78-7.68.17-26.46-.33-35.13-.8" transform="translate(-3.28 -3.21)" fill="none" stroke="#000" stroke-linecap="round" stroke-linejoin="round" stroke-width="0.28"></path><path d="M232.37,114.69" transform="translate(-3.28 -3.21)" fill="none" stroke="#000" stroke-linecap="round" stroke-linejoin="round" stroke-width="0.28"></path><path d="M234.53,113.2" transform="translate(-3.28 -3.21)" fill="none" stroke="#000" stroke-linecap="round" stroke-linejoin="round" stroke-width="0.28"></path><path d="M117,121.42l24.8-6.51s9.2-2.51,13.11-3.17a149.88,149.88,0,0,1,18.81-1.26c13.13,0,18.92.88,18.92.88s6.52,1.27,10.6,2.4,10.18,3.1,12.77,3.51a5.52,5.52,0,0,0,1.54,0c1.07-.15,14.27-1.61,20-3.17s10-2.63,12.13-5.75a24.5,24.5,0,0,0,4-11.31s1.25-11.38,1.25-25.41" transform="translate(-3.28 -3.21)" fill="none" stroke="#000" stroke-linecap="round" stroke-linejoin="round" stroke-width="0.57"></path><path d="M51.56,122.46c10.27.55,34.68,1.73,57.15,1.88" transform="translate(-3.28 -3.21)" fill="none" stroke="#000" stroke-linecap="round" stroke-linejoin="round" stroke-width="0.28"></path><path d="M12.71,87.67s35.51,3.4,75.44,6.24" transform="translate(-3.28 -3.21)" fill="none" stroke="#000" stroke-linecap="round" stroke-linejoin="round" stroke-width="0.28"></path><path d="M128.1,71.62a2.7,2.7,0,0,0,2.72,2.68l.26.21V78a2.57,2.57,0,0,0,1.76,2.72c.74.21,5.83,1.36,5.83,1.36.18,10.88,2,25.26,2.11,25.84s-.24.69-.24.69-26.74,6-28.15,6.27a2,2,0,0,1-2-.4A71.26,71.26,0,0,1,96,71.62" transform="translate(-3.28 -3.21)" fill="none" stroke="#000" stroke-linecap="round" stroke-linejoin="round" stroke-width="0.28"></path><path d="M18.34,71.51a5.21,5.21,0,0,1-.24,1.8h-2s-1.73-.33-1.73-1.8" transform="translate(-3.28 -3.21)" fill="none" stroke="#000" stroke-linecap="round" stroke-linejoin="round" stroke-width="0.43"></path><path d="M187.49,119.36s.16,0,5.1-8" transform="translate(-3.28 -3.21)" fill="none" stroke="#000" stroke-linecap="round" stroke-linejoin="round" stroke-width="0.43"></path><path d="M209.34,100.44" transform="translate(-3.28 -3.21)" fill="none" stroke="#000" stroke-linecap="round" stroke-linejoin="round" stroke-width="0.43"></path><path d="M130.94,126.25a2.56,2.56,0,0,0-2.41-1.65h-4a2.5,2.5,0,0,0-2.56,2.45,2.43,2.43,0,0,0,.28,1.11s5.24,6.9,9,9.18" transform="translate(-3.28 -3.21)" fill="none" stroke="#000" stroke-linecap="round" stroke-linejoin="round" stroke-width="0.57"></path><path d="M136.49,129.16c-1.1-2.62-1.84-2.71-1.84-2.71l-9.73-.58a1.76,1.76,0,0,0-1.8,1.73,2,2,0,0,0,0,.34,17.7,17.7,0,0,0,4,5.87c3.13,3.29,6.08,5.69,12.16,5.23,0,0,1.36.25-.4-3.85Z" transform="translate(-3.28 -3.21)" fill="none" stroke="#000" stroke-linecap="round" stroke-linejoin="round" stroke-width="0.57"></path><path d="M111.3,119.73s29.49-8.48,30.94-8.83,2.71-1.09,1.84-5.52c-.91-4.64-3.33-10.37-3.33-33.73" transform="translate(-3.28 -3.21)" fill="none" stroke="#000" stroke-linecap="round" stroke-linejoin="round" stroke-width="0.57"></path><path d="M192.65,127.76" transform="translate(-3.28 -3.21)" fill="none" stroke="#000" stroke-linecap="round" stroke-linejoin="round" stroke-width="0.43"></path><path d="M188.27,119.36s4.32,5,4.32,8.22c0,0,0,.63-1.15.84" transform="translate(-3.28 -3.21)" fill="none" stroke="#000" stroke-linecap="round" stroke-linejoin="round" stroke-width="0.43"></path><path d="M39.34,128.87a5.08,5.08,0,0,1,2.75.32c1.6.61,10.07,3.91,10.07,3.91" transform="translate(-3.28 -3.21)" fill="none" stroke="#000" stroke-linecap="round" stroke-linejoin="round" stroke-width="0.43"></path><path d="M114.88,121.44s-1.27.24-8.32,8.71" transform="translate(-3.28 -3.21)" fill="none" stroke="#000" stroke-linecap="round" stroke-linejoin="round" stroke-width="0.57"></path><path d="M136.68,129.63s27.52-.64,42.49-1c0,0,4.33-.06,6.2-.12a49.91,49.91,0,0,1,6.92,0,21.93,21.93,0,0,1,6.07,1.74c2.22,1.06,5.58,2.61,6.53,3.14a8.66,8.66,0,0,0,4.59,1.27s13.91.32,16.52.32,16.61,0,21.27,0,9-.18,11.38-.25a22.53,22.53,0,0,0,6.88-1.16c1.77-.71,10.44-3.92,14.12-5.55s9.13-4.06,12.1-6.64a30.41,30.41,0,0,0,7.25-9.89,74.36,74.36,0,0,0,6.7-23.69c1-10.68,1.06-13.31,1.06-16.33" transform="translate(-3.28 -3.21)" fill="none" stroke="#000" stroke-linecap="round" stroke-linejoin="round" stroke-width="0.43"></path><path d="M45.83,122.47c-1.76,3-5.57,3.65-10.95.49-4.35-2.57-6.5-7-4.81-9.84s6.59-3.07,10.93-.48S47.48,119.59,45.83,122.47Z" transform="translate(-3.28 -3.21)" fill="none" stroke="#000" stroke-linecap="round" stroke-linejoin="round" stroke-width="0.28"></path><path d="M32.33,111.28c2.46-1.16,6.28-.87,9.73,1.18,4.66,2.76,6.93,7.45,5.16,10.53-1.88,3.27-6,3.91-11.72.52a14.16,14.16,0,0,1-2.94-2.29" transform="translate(-3.28 -3.21)" fill="none" stroke="#000" stroke-linecap="round" stroke-linejoin="round" stroke-width="0.28"></path><path d="M50.24,122.76c-1.81,3.93-6.59,5.32-13.87,1.88-5.9-2.79-9.15-8.34-7.49-12,1.39-3.09,7.6-4.17,13.5-1.36S51.93,119.06,50.24,122.76Z" transform="translate(-3.28 -3.21)" fill="none" stroke="#000" stroke-linecap="round" stroke-linejoin="round" stroke-width="0.28"></path><path d="M39.14,110.06a45.75,45.75,0,0,0-4.89-1c-4.75-.7-8.83.8-9.7,3.31-1.11,3.19,1.42,7.38,5.95,10a41.77,41.77,0,0,0,9.23,4.25s5.88,1.91,8.82-1.54" transform="translate(-3.28 -3.21)" fill="none" stroke="#000" stroke-linecap="round" stroke-linejoin="round" stroke-width="0.28"></path><path d="M42.86,114.21a1.57,1.57,0,0,0-.61.58c-.31.47-.37,1-.15,1.12s.66-.12,1-.6a1.67,1.67,0,0,0,.27-.65" transform="translate(-3.28 -3.21)" fill="none" stroke="#000" stroke-linecap="round" stroke-linejoin="round" stroke-width="0.28"></path><path d="M42.11,121.54c.39.58.88.93,1.1.78s.09-.73-.29-1.31-.88-.93-1.1-.78S41.73,121,42.11,121.54Z" transform="translate(-3.28 -3.21)" fill="none" stroke="#000" stroke-linecap="round" stroke-linejoin="round" stroke-width="0.28"></path><polyline points="38.97 111.58 37.45 112.18 37.36 117.62 38.69 118.29" fill="none" stroke="#000" stroke-linecap="round" stroke-linejoin="round" stroke-width="0.28"></polyline><polyline points="39.37 112.89 40.2 113.28 40.2 116.54 39.23 116.99" fill="none" stroke="#000" stroke-linecap="round" stroke-linejoin="round" stroke-width="0.28"></polyline><path d="M42,116.1a1.39,1.39,0,0,0-.37.9v2.38A.77.77,0,0,0,42,120" transform="translate(-3.28 -3.21)" fill="none" stroke="#000" stroke-linecap="round" stroke-linejoin="round" stroke-width="0.28"></path><line x1="38.97" y1="112.74" x2="41.14" y2="112.62" fill="none" stroke="#000" stroke-linecap="round" stroke-linejoin="round" stroke-width="0.28"></line><line x1="39.72" y1="119.14" x2="42.34" y2="119.25" fill="none" stroke="#000" stroke-linecap="round" stroke-linejoin="round" stroke-width="0.28"></line><path d="M43.32,120a6.74,6.74,0,0,0,2.73.53" transform="translate(-3.28 -3.21)" fill="none" stroke="#000" stroke-linecap="round" stroke-linejoin="round" stroke-width="0.28"></path><path d="M43.66,119.13s2.16.62,2.39.73" transform="translate(-3.28 -3.21)" fill="none" stroke="#000" stroke-linecap="round" stroke-linejoin="round" stroke-width="0.28"></path><path d="M43.34,122.37a3.61,3.61,0,0,0,1.7,1" transform="translate(-3.28 -3.21)" fill="none" stroke="#000" stroke-linecap="round" stroke-linejoin="round" stroke-width="0.28"></path><path d="M41.78,121.41s-.23.35-1.58.41-5.45.26-5.45.26" transform="translate(-3.28 -3.21)" fill="none" stroke="#000" stroke-linecap="round" stroke-linejoin="round" stroke-width="0.28"></path><path d="M31.72,112.7l7.14,1.23a19.65,19.65,0,0,1,3.11.76" transform="translate(-3.28 -3.21)" fill="none" stroke="#000" stroke-linecap="round" stroke-linejoin="round" stroke-width="0.28"></path><path d="M31.06,113.33,39,115.08a1.4,1.4,0,0,1,1,1.39V120a1.21,1.21,0,0,1-1.1,1.13c-1.07.16-4.73.35-4.73.35" transform="translate(-3.28 -3.21)" fill="none" stroke="#000" stroke-linecap="round" stroke-linejoin="round" stroke-width="0.28"></path><path d="M44,123.12c-1.87,1.61-4.89,1.59-8.79-.71s-5.76-6.34-4.18-9,6.09-3.08,10-.77" transform="translate(-3.28 -3.21)" fill="none" stroke="#000" stroke-linecap="round" stroke-linejoin="round" stroke-width="0.28"></path><path d="M23.11,123.46l-.31.25s-.45.26,0,.63a16.54,16.54,0,0,0,2.87,2" transform="translate(-3.28 -3.21)" fill="none" stroke="#000" stroke-linecap="round" stroke-linejoin="round" stroke-width="0.43"></path><path d="M298.76,71.58a117.46,117.46,0,0,1-2.31,24.15A49,49,0,0,1,291.73,109a18.1,18.1,0,0,1-3.49,4.75c-.84.73-3.58,2.43-4.33,2.9A2.28,2.28,0,0,1,282,117c-.73-.15-1.2-1.62-1.2-1.62-.77-2.75-1.62-8.54-1.76-9.6a2,2,0,0,1,.57-1.85,23.82,23.82,0,0,0,1.62-2.46,15.75,15.75,0,0,0,1.08-3.41,158.54,158.54,0,0,0,2.81-26.49" transform="translate(-3.28 -3.21)" fill="none" stroke="#000" stroke-linecap="round" stroke-linejoin="round" stroke-width="0.57"></path><path d="M266.21,133.34a24.2,24.2,0,0,1,6-3.86c3.92-1.84,10.46-4.8,13.38-6.36s11.55-6.54,14.18-13.38" transform="translate(-3.28 -3.21)" fill="none" stroke="#000" stroke-linecap="round" stroke-linejoin="round" stroke-width="0.43"></path><path d="M246.44,135s8.68-4,12.67-6,8.58-4.06,12.18-5.86,7.35-3.64,9.23-4.77,2.07-1.28,2.07-1.28" transform="translate(-3.28 -3.21)" fill="none" stroke="#000" stroke-linecap="round" stroke-linejoin="round" stroke-width="0.43"></path><path d="M297.29,101.17s3.87-9.72,3.87-29.63" transform="translate(-3.28 -3.21)" fill="none" stroke="#000" stroke-linecap="round" stroke-linejoin="round" stroke-width="0.28"></path><path d="M279.86,104.94a31.57,31.57,0,0,0,7.84-1.14" transform="translate(-3.28 -3.21)" fill="none" stroke="#000" stroke-linecap="round" stroke-linejoin="round" stroke-width="0.28"></path><path d="M266.77,71.58c0,20.84-2.16,29.09-2.25,30a2.92,2.92,0,0,0,.18,1.94,1.57,1.57,0,0,0,1.32.72l1.05,0c1.83.1,8.63-.26,8.63-.26l-.09,1s-.17,2.19-.19,2.82a11.28,11.28,0,0,0,.66,5A29.9,29.9,0,0,0,279,118.5l.27.56" transform="translate(-3.28 -3.21)" fill="none" stroke="#000" stroke-linecap="round" stroke-linejoin="round" stroke-width="0.57"></path><path d="M276.1,105.23l2.46-.16" transform="translate(-3.28 -3.21)" fill="none" stroke="#000" stroke-linecap="round" stroke-linejoin="round" stroke-width="0.28"></path><path d="M212.49,134.77s.5.8,4.68,1,14.26.44,18.36.44" transform="translate(-3.28 -3.21)" fill="none" stroke="#000" stroke-linecap="round" stroke-linejoin="round" stroke-width="0.57"></path><path d="M258.57,134.77s-.5.8-4.68,1-14.27.44-18.36.44" transform="translate(-3.28 -3.21)" fill="none" stroke="#000" stroke-linecap="round" stroke-linejoin="round" stroke-width="0.57"></path><path d="M258.19,134.77" transform="translate(-3.28 -3.21)" fill="none" stroke="#000" stroke-linecap="round" stroke-linejoin="round" stroke-width="0.28"></path><path d="M181.82,128.63a9.93,9.93,0,0,1,2.12.72A17.26,17.26,0,0,0,188,131c1.14.14,3.47.23,5.57.27s6.39.13,7.17.14" transform="translate(-3.28 -3.21)" fill="none" stroke="#000" stroke-linecap="round" stroke-linejoin="round" stroke-width="0.28"></path><path d="M184.49,128.55s1.27.66,2,1.12a7.81,7.81,0,0,0,3.63,1.17c1.41,0,8.49.21,9.82.22" transform="translate(-3.28 -3.21)" fill="none" stroke="#000" stroke-linecap="round" stroke-linejoin="round" stroke-width="0.28"></path><path d="M282.29,101.3s3.81-.11,7.53-.53" transform="translate(-3.28 -3.21)" fill="none" stroke="#000" stroke-linecap="round" stroke-linejoin="round" stroke-width="0.28"></path><path d="M272.25,71.51" transform="translate(-3.28 -3.21)" fill="none" stroke="#000" stroke-linecap="round" stroke-linejoin="round" stroke-width="0.43"></path><path d="M278.43,100c-1,2.78-2.55,3-2.55,3l-8,.17.09-.53.11,0" transform="translate(-3.28 -3.21)" fill="none" stroke="#000" stroke-linecap="round" stroke-linejoin="round" stroke-width="0.43"></path><path d="M268,102.7l7.77-.12a3.91,3.91,0,0,0,2.69-2.55s2.78-7.61,3.54-28.58" transform="translate(-3.28 -3.21)" fill="none" stroke="#000" stroke-linecap="round" stroke-linejoin="round" stroke-width="0.43"></path><line x1="265.04" y1="98.19" x2="273.8" y2="97.74" fill="none" stroke="#000" stroke-linecap="round" stroke-linejoin="round" stroke-width="0.43"></line><line x1="265.69" y1="95.25" x2="274.88" y2="94.86" fill="none" stroke="#000" stroke-linecap="round" stroke-linejoin="round" stroke-width="0.43"></line><line x1="266.22" y1="92.27" x2="275.76" y2="91.97" fill="none" stroke="#000" stroke-linecap="round" stroke-linejoin="round" stroke-width="0.43"></line><line x1="266.59" y1="89.33" x2="276.38" y2="89.09" fill="none" stroke="#000" stroke-linecap="round" stroke-linejoin="round" stroke-width="0.43"></line><line x1="266.92" y1="86.3" x2="276.66" y2="86.19" fill="none" stroke="#000" stroke-linecap="round" stroke-linejoin="round" stroke-width="0.43"></line><line x1="267.23" y1="83.33" x2="277.2" y2="83.21" fill="none" stroke="#000" stroke-linecap="round" stroke-linejoin="round" stroke-width="0.43"></line><line x1="267.58" y1="80.4" x2="277.41" y2="80.28" fill="none" stroke="#000" stroke-linecap="round" stroke-linejoin="round" stroke-width="0.43"></line><line x1="267.79" y1="77.43" x2="277.66" y2="77.31" fill="none" stroke="#000" stroke-linecap="round" stroke-linejoin="round" stroke-width="0.43"></line><line x1="267.87" y1="74.28" x2="277.74" y2="74.28" fill="none" stroke="#000" stroke-linecap="round" stroke-linejoin="round" stroke-width="0.43"></line><line x1="267.87" y1="71.36" x2="278.05" y2="71.36" fill="none" stroke="#000" stroke-linecap="round" stroke-linejoin="round" stroke-width="0.43"></line><line x1="267.91" y1="68.3" x2="278.09" y2="68.3" fill="none" stroke="#000" stroke-linecap="round" stroke-linejoin="round" stroke-width="0.43"></line><path d="M278.12,71.51" transform="translate(-3.28 -3.21)" fill="none" stroke="#000" stroke-linecap="round" stroke-linejoin="round" stroke-width="0.43"></path><path d="M275.19,100.61" transform="translate(-3.28 -3.21)" fill="none" stroke="#000" stroke-linecap="round" stroke-linejoin="round" stroke-width="0.43"></path><path d="M300.06,109.16s1.9-1.78,2-2a10.49,10.49,0,0,0,.88-2.44,137,137,0,0,0,2.49-13.8c.09-.8.15-1.57.18-2.26" transform="translate(-3.28 -3.21)" fill="none" stroke="#000" stroke-linecap="round" stroke-linejoin="round" stroke-width="0.43"></path><path d="M305.44,90.93l.5.26s.52,0-.76,6.35a1.31,1.31,0,0,1-.91.92" transform="translate(-3.28 -3.21)" fill="none" stroke="#000" stroke-linecap="round" stroke-linejoin="round" stroke-width="0.43"></path><path d="M304.18,98.92l.47.22s.18.12.09.57a36.87,36.87,0,0,1-1.18,5.23,3.83,3.83,0,0,1-1.36,2" transform="translate(-3.28 -3.21)" fill="none" stroke="#000" stroke-linecap="round" stroke-linejoin="round" stroke-width="0.43"></path><path d="M267.93,102.7s2.94-11.53,2.94-31.25" transform="translate(-3.28 -3.21)" fill="none" stroke="#000" stroke-linecap="round" stroke-linejoin="round" stroke-width="0.43"></path><path d="M221.72,71.42s-.11,18.06,0,24.06c0,0-.32,5.63,5.18,5.69s11.37-.1,14.31-1.14,5.94-3.17,6.5-7.73a152.77,152.77,0,0,0,1.13-20.72" transform="translate(-3.28 -3.21)" fill="none" stroke="#000" stroke-linecap="round" stroke-linejoin="round" stroke-width="0.57"></path><path d="M148.77,106.91s7-1.84,20.5-2.54,47.5-1.43,59.75-1.18c0,0,16.75-.21,21.75,0" transform="translate(-3.28 -3.21)" fill="none" stroke="#000" stroke-linecap="round" stroke-linejoin="round" stroke-width="0.28"></path><path d="M216.4,117.39s-2.75-.06-1,1.67,4.71,4.55,7.62,5.77,6.17,1.86,11.92,1.89a55.92,55.92,0,0,0,12.15-1.38A129.83,129.83,0,0,0,277,114.92" transform="translate(-3.28 -3.21)" fill="none" stroke="#000" stroke-linecap="round" stroke-linejoin="round" stroke-width="0.57"></path><path d="M149,113s-.44-.15-.44-.86a13.9,13.9,0,0,0-.5-3c-.42-1.91-1.29-7-1.79-11a212.48,212.48,0,0,1-1.5-26.76" transform="translate(-3.28 -3.21)" fill="none" stroke="#000" stroke-linecap="round" stroke-linejoin="round" stroke-width="0.43"></path><path d="M275.19,105.63s-7.5.46-8.75.5a3.29,3.29,0,0,1-2.91-.9c-.8-.87-.73-1.72-.63-3s.63-4.17.63-4.17,1.68-10,1.68-26.59" transform="translate(-3.28 -3.21)" fill="none" stroke="#000" stroke-linecap="round" stroke-linejoin="round" stroke-width="0.28"></path><path d="M275.7,104.05s3.56-.25,4.6-1.11" transform="translate(-3.28 -3.21)" fill="none" stroke="#000" stroke-linecap="round" stroke-linejoin="round" stroke-width="0.57"></path></svg>