<svg viewBox="0 0 303.66 134.09" xmlns="http://www.w3.org/2000/svg"><path d="M220.52,155.16h0a152.41,152.41,0,0,1-.81,16.47.05.05,0,0,1,0,0,138.42,138.42,0,0,1-2.68,18.76l-.12.57a8.06,8.06,0,0,1-3.28,5.36l-.12.1c-1.13.92-4.61,3.13-5.35,3.6l-.49.4a18.41,18.41,0,0,1-2.62,4.87c-.71.82-1.31,1.15-4.28,2.35S188,211,187.92,211h0c-1.47.62-3.27,1.33-4.93,2s-3.4,1.35-4.37,1.77c-2.31,1-6.92,1.07-7,1.07l-.44,0c-.27.3-2.67,1.3-22.41,1.3-17.79,0-21.17-.67-21.79-1-2.36-.09-4.75-.23-5.7-.37l-.16,0c-1.12-.17-1.12-.17-3.16-1.18l-2.23-1.09a91,91,0,0,1-13.1.69c-2.85,0-5.76-.06-8.41-.15-6.07-.2-23.13-.94-32.76-1.36,0,0-.05,0-.07-.05l-9.84.25,1.93,4.87c.84,1.94,1.09,3.18.76,3.69a.48.48,0,0,1-.41.23h0c-.49,0-1,0-1.43,0A12.16,12.16,0,0,1,45.78,220l-.05,0c-2.49-1.51-5.67-5.1-7.48-7.28h0L27.4,213l-5.77.1A13.61,13.61,0,0,0,16,214.24c-1.48.64-5.22,1.19-9.29,1.36-3,.13-9.36.28-15.48.42l-5.57.12c-1.8.05-3.58.07-5.34.07-3.78,0-7.49-.1-11.22-.3,0,0-.73,0-1.74,0h-.72l-1.1,0,0,0h0l-.14,0c-1.45,0-3.51-.07-5.15-.18-2.09-.14-6-.74-8.81-1.18l-1.62-.24a29.84,29.84,0,0,1-7.4-2.19,21.37,21.37,0,0,1-4.81-4.21c-2.06-2.28-10.44-14.59-11.69-16.48a55.21,55.21,0,0,1-4-7.07,29.9,29.9,0,0,1-1.64-5.51,107.14,107.14,0,0,1-2.44-23.55.08.08,0,0,1,0-.07.11.11,0,0,1,0-.07,107.18,107.18,0,0,1,2.44-23.56,30.12,30.12,0,0,1,1.64-5.5,55.25,55.25,0,0,1,4-7.08c1.25-1.89,9.63-14.2,11.69-16.48a21,21,0,0,1,4.81-4.2,29,29,0,0,1,7.4-2.19l1.62-.25c2.83-.43,6.72-1,8.81-1.18,1.64-.11,3.71-.16,5.15-.18l.14,0,.07,0h1.41l2.14-.06c5.46-.29,10.88-.36,16.56-.23l5.57.13c6.12.14,12.44.28,15.48.41,4.07.18,7.81.73,9.29,1.36a13.45,13.45,0,0,0,5.66,1.18c.57,0,2.64,0,5.77.11l10.84.21a0,0,0,0,1,0,0c1.81-2.19,5-5.78,7.48-7.29h0a12.11,12.11,0,0,1,6.58-1.74c.46,0,.94,0,1.43,0h0a.48.48,0,0,1,.41.23c.33.51.08,1.76-.76,3.7l-1.93,4.87,9.84.24a.1.1,0,0,1,.07,0c9.63-.43,26.69-1.17,32.76-1.37,7.5-.25,17-.23,21.51.55l2.23-1.1c2-1,2-1,3.16-1.18l.16,0c1-.15,3.34-.28,5.7-.37.62-.3,4-1,21.79-1,19.73,0,22.14,1,22.41,1.3l.45,0s4.65.05,7,1.06c1,.43,2.62,1.08,4.37,1.78s3.46,1.38,4.93,2h0c.1,0,9.93,2.13,12.87,3.32s3.57,1.53,4.28,2.36a18.26,18.26,0,0,1,2.62,4.87l.49.4c.75.47,4.22,2.67,5.35,3.6l.12.09a8.06,8.06,0,0,1,3.28,5.37l.12.57a138.16,138.16,0,0,1,2.68,18.76l0,0a152.55,152.55,0,0,1,.81,16.47h0v0Z" transform="translate(82.71 -88.1)" fill="none" stroke="#1d1d1b" stroke-linecap="round" stroke-linejoin="round" stroke-width="0.85"></path><path d="M147.24,195.78a5.83,5.83,0,0,1-2,.92l-3,.6c-7.75,1.54-29.9,3.95-40.11,5S74.61,203.82,65.54,204c-6.53.15-22.25-.22-31.36-.29" transform="translate(82.71 -88.1)" fill="none" stroke="#1d1d1b" stroke-linecap="round" stroke-linejoin="round" stroke-width="0.57"></path><path d="M38.23,212.65c-8.81.16-15.52.31-16.6.31a13.76,13.76,0,0,0-5.69,1.19c-1.43.61-5.08,1.17-9.26,1.35-4,.18-13.54.37-21,.55s-13.25-.06-16.56-.23l-2.14-.07" transform="translate(82.71 -88.1)" fill="none" stroke="#1d1d1b" stroke-linecap="round" stroke-linejoin="round" stroke-width="0.57"></path><path d="M-70.11,180l.11.07a3.59,3.59,0,0,0,.59.29c1.73.64,40.88,13.93,79.13,20,0,0,6.49.91,11.59,1" transform="translate(82.71 -88.1)" fill="none" stroke="#1d1d1b" stroke-linecap="round" stroke-linejoin="round" stroke-width="0.57"></path><path d="M-74.12,155.15c0,14.79,2.48,22.84,2.48,22.84a4,4,0,0,0,1.53,2" transform="translate(82.71 -88.1)" fill="none" stroke="#1d1d1b" stroke-linecap="round" stroke-linejoin="round" stroke-width="0.57"></path><path d="M-34.54,215.75a10,10,0,0,1-2.13-.65c-4-1.41-9.88-3.75-14-5.55-3.77-1.65-5-3.19-9.62-8.86-4.45-5.51-9.72-19.85-9.72-19.85s-.27-.73-.31-.94" transform="translate(82.71 -88.1)" fill="none" stroke="#1d1d1b" stroke-linecap="round" stroke-linejoin="round" stroke-width="0.43"></path><path d="M60.19,197.85" transform="translate(82.71 -88.1)" fill="none" stroke="#1d1d1b" stroke-linecap="round" stroke-linejoin="round" stroke-width="0.43"></path><path d="M.63,155.27c0,37.3,20.59,46.75,26.05,48.49a38,38,0,0,0,4.75.65" transform="translate(82.71 -88.1)" fill="none" stroke="#1d1d1b" stroke-linecap="round" stroke-linejoin="round" stroke-width="0.57"></path><path d="M.63,155.27c0-37.31,20.25-46.83,25.72-48.57a35.16,35.16,0,0,1,5.08-.82" transform="translate(82.71 -88.1)" fill="none" stroke="#1d1d1b" stroke-linecap="round" stroke-linejoin="round" stroke-width="0.57"></path><path d="M30.92,204.24" transform="translate(82.71 -88.1)" fill="none" stroke="#1d1d1b" stroke-linecap="round" stroke-linejoin="round" stroke-width="0.57"></path><path d="M103,203.33c-10.21,1-27.47,1.54-36.53,1.75-7.6.17-26.59-.12-35.16-.59" transform="translate(82.71 -88.1)" fill="none" stroke="#1d1d1b" stroke-linecap="round" stroke-linejoin="round" stroke-width="0.28"></path><path d="M148.35,196.44c0,.75-2.09,1.44-2.09,1.44" transform="translate(82.71 -88.1)" fill="none" stroke="#1d1d1b" stroke-linecap="round" stroke-linejoin="round" stroke-width="0.28"></path><path d="M31.43,204.41l24.81-6.55s9.1-2.46,13-3.12,13-1.08,18.61-1.23c16.26-.42,50.16,1,58.07,1.74,2.4.23,2.46,1.23,2.46,1.23" transform="translate(82.71 -88.1)" fill="none" stroke="#1d1d1b" stroke-linecap="round" stroke-linejoin="round" stroke-width="0.57"></path><path d="M-33,205.3c10.16.53,34.31,1.7,56.55,1.84" transform="translate(82.71 -88.1)" fill="none" stroke="#1d1d1b" stroke-linecap="round" stroke-linejoin="round" stroke-width="0.28"></path><path d="M131.52,164.88" transform="translate(82.71 -88.1)" fill="none" stroke="#1d1d1b" stroke-linecap="round" stroke-linejoin="round" stroke-width="0.43"></path><path d="M128.5,163.9" transform="translate(82.71 -88.1)" fill="none" stroke="#1d1d1b" stroke-linecap="round" stroke-linejoin="round" stroke-width="0.43"></path><path d="M128,163.59" transform="translate(82.71 -88.1)" fill="none" stroke="#1d1d1b" stroke-linecap="round" stroke-linejoin="round" stroke-width="0.43"></path><path d="M130.44,164.32" transform="translate(82.71 -88.1)" fill="none" stroke="#1d1d1b" stroke-linecap="round" stroke-linejoin="round" stroke-width="0.43"></path><path d="M-65.86,155.16a4.93,4.93,0,0,1-.23,1.77h-2s-1.71-.33-1.71-1.77" transform="translate(82.71 -88.1)" fill="none" stroke="#1d1d1b" stroke-linecap="round" stroke-linejoin="round" stroke-width="0.43"></path><path d="M101.49,202.24s.69-.82,5.58-8.71" transform="translate(82.71 -88.1)" fill="none" stroke="#1d1d1b" stroke-linecap="round" stroke-linejoin="round" stroke-width="0.43"></path><path d="M130.35,155.15v26.69c0,4.4,5.17,3.89,5.17,3.89l32.4-1.17s4.13-.79,4.91-8.91,1.25-15.86,1.25-20.32" transform="translate(82.71 -88.1)" fill="none" stroke="#1d1d1b" stroke-linecap="round" stroke-linejoin="round" stroke-width="0.28"></path><path d="M123.11,183.62" transform="translate(82.71 -88.1)" fill="none" stroke="#1d1d1b" stroke-linecap="round" stroke-linejoin="round" stroke-width="0.43"></path><path d="M128.83,163.75" transform="translate(82.71 -88.1)" fill="none" stroke="#1d1d1b" stroke-linecap="round" stroke-linejoin="round" stroke-width="0.43"></path><path d="M45.54,209a2.52,2.52,0,0,0-2.38-1.62h-4a2.48,2.48,0,0,0-2.53,2.41,2.38,2.38,0,0,0,.28,1.09s5.18,6.8,8.88,9" transform="translate(82.71 -88.1)" fill="none" stroke="#1d1d1b" stroke-linecap="round" stroke-linejoin="round" stroke-width="0.57"></path><path d="M51,211.88c-1.09-2.57-1.83-2.65-1.83-2.65l-9.62-.58a1.75,1.75,0,0,0-1.79,1.7,2,2,0,0,0,0,.34,17.42,17.42,0,0,0,3.92,5.77c3.09,3.24,6,5.61,12,5.15,0,0,1.35.25-.39-3.78Z" transform="translate(82.71 -88.1)" fill="none" stroke="#1d1d1b" stroke-linecap="round" stroke-linejoin="round" stroke-width="0.57"></path><path d="M127.55,185.21c0,4.52,4.46,4.06,4.46,4.06" transform="translate(82.71 -88.1)" fill="none" stroke="#1d1d1b" stroke-linecap="round" stroke-linejoin="round" stroke-width="0.43"></path><path d="M127.55,155.25" transform="translate(82.71 -88.1)" fill="none" stroke="#1d1d1b" stroke-linecap="round" stroke-linejoin="round" stroke-width="0.43"></path><path d="M59.29,189.94s37.65-2.14,68.22-4.2" transform="translate(82.71 -88.1)" fill="none" stroke="#1d1d1b" stroke-linecap="round" stroke-linejoin="round" stroke-width="0.28"></path><path d="M127.55,155.15v30.06c0,4.52,4.46,4.06,4.46,4.06L173,187.72a1.57,1.57,0,0,0,1.39-1.27c.29-1.23,3.14-11.57,3.14-31.15" transform="translate(82.71 -88.1)" fill="none" stroke="#1d1d1b" stroke-linecap="round" stroke-linejoin="round" stroke-width="0.57"></path><path d="M24.72,203s30.57-8.71,32-9.05,2.69-1.07,1.83-5.43c-.9-4.57-3.08-10.36-3.08-33.34" transform="translate(82.71 -88.1)" fill="none" stroke="#1d1d1b" stroke-linecap="round" stroke-linejoin="round" stroke-width="0.57"></path><path d="M-46.71,192.5c-6.54-1.35-12.18.08-13.3,3.67-1.28,4.15,4,9.6,11.74,12.18a25,25,0,0,0,7.51,1.29" transform="translate(82.71 -88.1)" fill="none" stroke="#1d1d1b" stroke-linecap="round" stroke-linejoin="round" stroke-width="0.28"></path><path d="M-38.93,201.88a12.59,12.59,0,0,0-4-5.32c-3.85-3.06-8.39-3.59-10.15-1.17s-.08,6.85,3.77,9.91,8.39,3.59,10.15,1.18a3.64,3.64,0,0,0,.38-.66" transform="translate(82.71 -88.1)" fill="none" stroke="#1d1d1b" stroke-linecap="round" stroke-linejoin="round" stroke-width="0.28"></path><path d="M-37.44,201.72a15.58,15.58,0,0,0-4.8-6.14,15.7,15.7,0,0,0-5.56-2.93" transform="translate(82.71 -88.1)" fill="none" stroke="#1d1d1b" stroke-linecap="round" stroke-linejoin="round" stroke-width="0.28"></path><path d="M-39.4,209.13a4.25,4.25,0,0,0,1.79-1.4,4.5,4.5,0,0,0,.81-2.13" transform="translate(82.71 -88.1)" fill="none" stroke="#1d1d1b" stroke-linecap="round" stroke-linejoin="round" stroke-width="0.28"></path><path d="M-34.67,201.89l-5.94.38a8.72,8.72,0,0,0,.53,3.25l5.92-.49" transform="translate(82.71 -88.1)" fill="none" stroke="#1d1d1b" stroke-linecap="round" stroke-linejoin="round" stroke-width="0.28"></path><path d="M-40.46,205.33a2.33,2.33,0,0,1-2.07-1.42" transform="translate(82.71 -88.1)" fill="none" stroke="#1d1d1b" stroke-linecap="round" stroke-linejoin="round" stroke-width="0.28"></path><path d="M-42.89,203.87s-6.32-1.76-9-6.52" transform="translate(82.71 -88.1)" fill="none" stroke="#1d1d1b" stroke-linecap="round" stroke-linejoin="round" stroke-width="0.28"></path><path d="M-42.67,203.87a1.17,1.17,0,0,1,.69-1.13" transform="translate(82.71 -88.1)" fill="none" stroke="#1d1d1b" stroke-linecap="round" stroke-linejoin="round" stroke-width="0.28"></path><path d="M-40.64,204a8.5,8.5,0,0,0-1.66-1.75c-1.06-.84-3.63-4-7.58-5.32" transform="translate(82.71 -88.1)" fill="none" stroke="#1d1d1b" stroke-linecap="round" stroke-linejoin="round" stroke-width="0.28"></path><path d="M-53.4,196.93s3.26-.54,9.7.72" transform="translate(82.71 -88.1)" fill="none" stroke="#1d1d1b" stroke-linecap="round" stroke-linejoin="round" stroke-width="0.28"></path><polyline points="39.95 109 39.4 109.7 39.54 110.55 41.56 110.61" fill="none" stroke="#1d1d1b" stroke-linecap="round" stroke-linejoin="round" stroke-width="0.28"></polyline><line x1="40.06" y1="116.27" x2="34.41" y2="117.56" fill="none" stroke="#1d1d1b" stroke-linecap="round" stroke-linejoin="round" stroke-width="0.28"></line><path d="M9.88,172.11c.74,2.82,2.48,9.27,3.22,11.85l.65-.14c-3.93-13.65-8.17-33-8.17-33l-.64.15s1.51,6.94,3.58,15.44" transform="translate(82.71 -88.1)" fill="none" stroke="#1d1d1b" stroke-linecap="round" stroke-linejoin="round" stroke-width="0.43"></path><path d="M11.45,191.17" transform="translate(82.71 -88.1)" fill="none" stroke="#1d1d1b" stroke-linecap="round" stroke-linejoin="round" stroke-width="0.43"></path><path d="M8.85,169.73s1.15,5.78,1.39,7.68c0,0,.26,2.19.55,4.86s.41,5.08.41,5.08l.12,1.68a1.62,1.62,0,0,1,.24.87c0,.48-.2,2.59-.2,2.59" transform="translate(82.71 -88.1)" fill="none" stroke="#1d1d1b" stroke-linecap="round" stroke-linejoin="round" stroke-width="0.43"></path><path d="M13,192" transform="translate(82.71 -88.1)" fill="none" stroke="#1d1d1b" stroke-linecap="round" stroke-linejoin="round" stroke-width="0.43"></path><path d="M11.34,181.12s1.39,6.93,1.52,7.53l.18.56a2.23,2.23,0,0,1,.3,1.48,7.66,7.66,0,0,0,0,4.07" transform="translate(82.71 -88.1)" fill="none" stroke="#1d1d1b" stroke-linecap="round" stroke-linejoin="round" stroke-width="0.57"></path><path d="M11.34,181.21,11.16,180c-.7-5.37-1.72-9.83-1.72-9.83a5.83,5.83,0,0,1-.51-.41,1,1,0,0,1-.32-.41c-.08-.32-.51-2.52-.51-2.52l.29-.33.68-.15" transform="translate(82.71 -88.1)" fill="none" stroke="#1d1d1b" stroke-linecap="round" stroke-linejoin="round" stroke-width="0.57"></path><line x1="95.14" y1="100.58" x2="94.05" y2="93.1" fill="none" stroke="#1d1d1b" stroke-linecap="round" stroke-linejoin="round" stroke-width="0.28"></line><line x1="91.02" y1="78.72" x2="91.45" y2="78.66" fill="none" stroke="#1d1d1b" stroke-linecap="round" stroke-linejoin="round" stroke-width="0.43"></line><line x1="91.76" y1="78.31" x2="91.6" y2="78.52" fill="none" stroke="#1d1d1b" stroke-linecap="round" stroke-linejoin="round" stroke-width="0.43"></line><line x1="91.58" y1="78.86" x2="92.27" y2="81.81" fill="none" stroke="#1d1d1b" stroke-linecap="round" stroke-linejoin="round" stroke-width="0.43"></line><path d="M14.32,124.71l-.51-.27s-.49-.28-.7.19-.92,2-.92,2l-.14.89-1,2.11.29.17.13.16.82-1.75.62-.72h.27Z" transform="translate(82.71 -88.1)" fill="none" stroke="#1d1d1b" stroke-linecap="round" stroke-linejoin="round" stroke-width="0.43"></path><line x1="95.57" y1="38.99" x2="96.51" y2="36.74" fill="none" stroke="#1d1d1b" stroke-linecap="round" stroke-linejoin="round" stroke-width="0.43"></line><path d="M11.07,129.62s-1.35,2.76-6.34,14.54c0,0-3.33,6.53-3.78,7.37" transform="translate(82.71 -88.1)" fill="none" stroke="#1d1d1b" stroke-linecap="round" stroke-linejoin="round" stroke-width="0.43"></path><path d="M11.4,129.87S10,132.63,5.05,144.41l0,.28s-1.28,5-1.56,5.94a7.62,7.62,0,0,1-.86,2.23" transform="translate(82.71 -88.1)" fill="none" stroke="#1d1d1b" stroke-linecap="round" stroke-linejoin="round" stroke-width="0.43"></path><line x1="85.44" y1="62.86" x2="87.63" y2="56.58" fill="none" stroke="#1d1d1b" stroke-linecap="round" stroke-linejoin="round" stroke-width="0.43"></line><path d="M12.35,128.14" transform="translate(82.71 -88.1)" fill="none" stroke="#1d1d1b" stroke-linecap="round" stroke-linejoin="round" stroke-width="0.43"></path><path d="M14,124.41c1.75-3.83,3.69-8,5.57-11.77l.45.18c-5.63,11.4-11.85,25.89-11.85,25.89l-.42-.2" transform="translate(82.71 -88.1)" fill="none" stroke="#1d1d1b" stroke-linecap="round" stroke-linejoin="round" stroke-width="0.43"></path><path d="M2.73,152.28a7,7,0,0,0-.35,2.36c.07,1.21.16,2.64.26,3.05a3.4,3.4,0,0,1,0,1.38.86.86,0,0,1-.94.7A.82.82,0,0,1,1,159.4" transform="translate(82.71 -88.1)" fill="none" stroke="#1d1d1b" stroke-linecap="round" stroke-linejoin="round" stroke-width="0.43"></path><line x1="84.6" y1="62.78" x2="85.08" y2="63.11" fill="none" stroke="#1d1d1b" stroke-linecap="round" stroke-linejoin="round" stroke-width="0.43"></line><path d="M2.48,151.43s-.27.54.11.81" transform="translate(82.71 -88.1)" fill="none" stroke="#1d1d1b" stroke-linecap="round" stroke-linejoin="round" stroke-width="0.43"></path><path d="M2.29,158.84a.7.7,0,0,1-.73.65.69.69,0,0,1-.55-.8.7.7,0,0,1,.73-.65A.69.69,0,0,1,2.29,158.84Z" transform="translate(82.71 -88.1)" fill="none" stroke="#1d1d1b" stroke-linecap="round" stroke-linejoin="round" stroke-width="0.43"></path><path d="M-34.53,206.61c1.82-3.65-1.39-9.15-7.17-12.28s-11.95-2.72-13.77.92,1.38,9.15,7.16,12.28S-36.36,210.25-34.53,206.61Z" transform="translate(82.71 -88.1)" fill="none" stroke="#1d1d1b" stroke-linecap="round" stroke-linejoin="round" stroke-width="0.57" opacity="0.5"></path><path d="M-34.53,206.61c1.82-3.65-1.39-9.15-7.17-12.28s-11.95-2.72-13.77.92,1.38,9.15,7.16,12.28S-36.36,210.25-34.53,206.61Z" transform="translate(82.71 -88.1)" fill="none" stroke="#1d1d1b" stroke-linecap="round" stroke-linejoin="round" stroke-width="0.57"></path><path d="M189,187.24a9.58,9.58,0,0,0-.27,1.14,21.34,21.34,0,0,0-.6,4.35,12.68,12.68,0,0,0,.89,3.13" transform="translate(82.71 -88.1)" fill="none" stroke="#1d1d1b" stroke-linecap="round" stroke-linejoin="round" stroke-width="0.57"></path><path d="M106.59,210.51" transform="translate(82.71 -88.1)" fill="none" stroke="#1d1d1b" stroke-linecap="round" stroke-linejoin="round" stroke-width="0.43"></path><path d="M102.26,202.24s4.27,4.89,4.27,8.09c0,0,.17,1-2.6.95" transform="translate(82.71 -88.1)" fill="none" stroke="#1d1d1b" stroke-linecap="round" stroke-linejoin="round" stroke-width="0.43"></path><path d="M-32.67,215.77l-8.86-3.42a5,5,0,0,0-2.72-.31l-.21.08" transform="translate(82.71 -88.1)" fill="none" stroke="#1d1d1b" stroke-linecap="round" stroke-linejoin="round" stroke-width="0.43"></path><path d="M29.78,204.26s-1.23.08-7.79,8.69" transform="translate(82.71 -88.1)" fill="none" stroke="#1d1d1b" stroke-linecap="round" stroke-linejoin="round" stroke-width="0.57"></path><path d="M171.12,215.76s.23,1.31-22.35,1.31c-21.9,0-21.84-1-21.84-1" transform="translate(82.71 -88.1)" fill="none" stroke="#1d1d1b" stroke-linecap="round" stroke-linejoin="round" stroke-width="0.57"></path><path d="M.63,155" transform="translate(82.71 -88.1)" fill="none" stroke="#1d1d1b" stroke-linecap="round" stroke-linejoin="round" stroke-width="0.57"></path><path d="M14.76,99.7c0,1.69-3.3,2.88-7.15,2.65S.9,100.52,1,98.83C1.06,98,1.74,97.3,3,97a18,18,0,0,1,4.88-.15,17.29,17.29,0,0,1,4.25.8C13.73,98.15,14.76,98.81,14.76,99.7Z" transform="translate(82.71 -88.1)" fill="none" stroke="#1d1d1b" stroke-linecap="round" stroke-linejoin="round" stroke-width="0.28"></path><path d="M1.09,165.82s-51.36-2.5-70.18-3.83c0,0-1.06-.11-1.37.27a1.74,1.74,0,0,0-.47,1.41,74.8,74.8,0,0,0,1.75,13,4.89,4.89,0,0,0,2.88,3.25c2.32.84,14.12,4.5,18.3,5.78" transform="translate(82.71 -88.1)" fill="none" stroke="#1d1d1b" stroke-linecap="round" stroke-linejoin="round" stroke-width="0.28"></path><path d="M-63.93,178.72s-.11-1.13-.22-2.48-1.37-11.55-1.5-12.22A1.43,1.43,0,0,0-67,162.71c-.85-.09-2.42-.15-2.42-.15s-1,0-1,1.37a86.66,86.66,0,0,0,1.5,11.79s.42,2.46,2.14,3l1.72.56s.71.22.93,0S-63.92,178.93-63.93,178.72Z" transform="translate(82.71 -88.1)" fill="none" stroke="#1d1d1b" stroke-linecap="round" stroke-linejoin="round" stroke-width="0.57"></path><path d="M-63.83,179.65s4,1.71,9.21,3.72" transform="translate(82.71 -88.1)" fill="none" stroke="#1d1d1b" stroke-linecap="round" stroke-linejoin="round" stroke-width="0.28"></path><path d="M103.26,203.41s16.34-1.26,25.83-2.62,14.3-2.13,17.17-2.91" transform="translate(82.71 -88.1)" fill="none" stroke="#1d1d1b" stroke-linecap="round" stroke-linejoin="round" stroke-width="0.28"></path><path d="M61.47,212.62c9.8.43,26.71,1.16,32.75,1.36,8.72.29,17.66.18,21.73-.58" transform="translate(82.71 -88.1)" fill="none" stroke="#1d1d1b" stroke-linecap="round" stroke-linejoin="round" stroke-width="0.43"></path><path d="M206,199.49c0,.59-2.42,1-4.62,1.35s-16.88,2-16.88,2-3.86.52-3.86,0,4-.87,4-.87,17.33-2.17,21-2.67C205.64,199.26,206,199.2,206,199.49Z" transform="translate(82.71 -88.1)" fill="none" stroke="#1d1d1b" stroke-linecap="round" stroke-linejoin="round" stroke-width="0.57"></path><path d="M191.8,186.88a5.15,5.15,0,0,0-.26,1,3.54,3.54,0,0,0,0,1.13,3.79,3.79,0,0,1-.27,1.86c-.31.84-5,10.89-5,10.89" transform="translate(82.71 -88.1)" fill="none" stroke="#1d1d1b" stroke-linecap="round" stroke-linejoin="round" stroke-width="0.57"></path><path d="M205.22,199.31s4.47-8,6.27-15.22,3.71-13.23,3.71-28.87" transform="translate(82.71 -88.1)" fill="none" stroke="#1d1d1b" stroke-linecap="round" stroke-linejoin="round" stroke-width="0.57"></path><path d="M172.65,187.84" transform="translate(82.71 -88.1)" fill="none" stroke="#1d1d1b" stroke-linecap="round" stroke-linejoin="round" stroke-width="0.43"></path><path d="M205,185.82s-15.34,1.34-20.68,1.48-10.08.35-10.08.35l.07-.48s4.74-.2,10.08-.35,20.68-1.48,20.68-1.48Z" transform="translate(82.71 -88.1)" fill="none" stroke="#1d1d1b" stroke-linecap="round" stroke-linejoin="round" stroke-width="0.57"></path><path d="M195.38,186.11s.31-.91.4-1.06a.82.82,0,0,1,.61-.32l10.63-.9s.79-.06.55.84l-.23.9a1,1,0,0,1-1,.7c-.84.06-8.57.73-10.48.87,0,0-.62-.06-.56-.46" transform="translate(82.71 -88.1)" fill="none" stroke="#1d1d1b" stroke-linecap="round" stroke-linejoin="round" stroke-width="0.57"></path><path d="M196,186.07l.18-.58a.51.51,0,0,1,.5-.31c.39,0,2-.07,2-.07s.36,0,.31.29a2.32,2.32,0,0,1-.15.45" transform="translate(82.71 -88.1)" fill="none" stroke="#1d1d1b" stroke-linecap="round" stroke-linejoin="round" stroke-width="0.43"></path><path d="M203.58,185.38l.13-.56a.49.49,0,0,1,.4-.28l2-.07s.32,0,.29.26a3.26,3.26,0,0,1-.16.61.45.45,0,0,1-.36.25c-.28,0-.86,0-.86,0" transform="translate(82.71 -88.1)" fill="none" stroke="#1d1d1b" stroke-linecap="round" stroke-linejoin="round" stroke-width="0.43"></path><path d="M192,186.42a114.09,114.09,0,0,0,4.34-31.29" transform="translate(82.71 -88.1)" fill="none" stroke="#1d1d1b" stroke-linecap="round" stroke-linejoin="round" stroke-width="0.57"></path><line x1="278.48" y1="77.7" x2="266.06" y2="78.14" fill="none" stroke="#1d1d1b" stroke-linecap="round" stroke-linejoin="round" stroke-width="0.57"></line><line x1="265.89" y1="78.05" x2="265.86" y2="67.05" fill="none" stroke="#1d1d1b" stroke-linecap="round" stroke-linejoin="round" stroke-width="0.28"></line><path d="M181.17,155.22v13.9s0,1,.76,1h1.26v-4" transform="translate(82.71 -88.1)" fill="none" stroke="#1d1d1b" stroke-linecap="round" stroke-linejoin="round" stroke-width="0.57"></path><path d="M195.78,165.94a2.2,2.2,0,0,0-1.6,1.91c-.23,1.63-.64,3.84-.64,3.84a1.49,1.49,0,0,0,.1.62" transform="translate(82.71 -88.1)" fill="none" stroke="#1d1d1b" stroke-linecap="round" stroke-linejoin="round" stroke-width="0.43"></path><path d="M194.12,168.06l-4.12.2a2,2,0,0,0-1.28.7c-.44.61-.87,1.1-.87,1.1a1.34,1.34,0,0,1-1,.47l-2.7.2a1.12,1.12,0,0,0-1.1,1.05c-.12,1-1,7.82-2.56,14.64" transform="translate(82.71 -88.1)" fill="none" stroke="#1d1d1b" stroke-linecap="round" stroke-linejoin="round" stroke-width="0.57"></path><path d="M174.33,186.83l15-1.18s.72.17,1.9-3.79" transform="translate(82.71 -88.1)" fill="none" stroke="#1d1d1b" stroke-linecap="round" stroke-linejoin="round" stroke-width="0.57"></path><line x1="272" y1="98.4" x2="272.01" y2="97.55" fill="none" stroke="#1d1d1b" stroke-linecap="round" stroke-linejoin="round" stroke-width="0.43"></line><path d="M182.52,182.47a64.38,64.38,0,0,0,8.95-.74c.36-.06.57-.5.57-.5,0-.3-.48-.3-.48-.3s-6,.49-9,.84" transform="translate(82.71 -88.1)" fill="none" stroke="#1d1d1b" stroke-linecap="round" stroke-linejoin="round" stroke-width="0.43"></path><path d="M183.25,177.21l9.1-.6s.9,0,.79.28c-.2.46-.86.55-.86.55-2.36.24-9.07.43-9.07.43" transform="translate(82.71 -88.1)" fill="none" stroke="#1d1d1b" stroke-linecap="round" stroke-linejoin="round" stroke-width="0.43"></path><path d="M184.06,172.65l9.26-.32s.78,0,.79.26-1,.59-1,.59c-1.41.13-9.21.18-9.21.18" transform="translate(82.71 -88.1)" fill="none" stroke="#1d1d1b" stroke-linecap="round" stroke-linejoin="round" stroke-width="0.43"></path><path d="M190.61,184.25s1.59-.1,1.91-.19" transform="translate(82.71 -88.1)" fill="none" stroke="#1d1d1b" stroke-linecap="round" stroke-linejoin="round" stroke-width="0.43"></path><path d="M190,155.15s0,3.73,0,4.19a.68.68,0,0,0,.74.74c.5,0,3.2,0,3.2,0a.75.75,0,0,0,.61-.76v-4.18" transform="translate(82.71 -88.1)" fill="none" stroke="#1d1d1b" stroke-linecap="round" stroke-linejoin="round" stroke-width="0.28"></path><path d="M30.18,204.19s26.23-7.58,30.51-8.62a130.78,130.78,0,0,1,20.17-3c5.88-.22,42.64-1.41,50.55-1.58s53.45-2.43,57.29-2.6" transform="translate(82.71 -88.1)" fill="none" stroke="#1d1d1b" stroke-linecap="round" stroke-linejoin="round" stroke-width="0.28"></path><path d="M51.45,212.82s40.3-1,44.83-1.18,13.43-1.13,18.74,1.44,4.58,2.4,6.28,2.66,8.06.48,10.54.48,31.9,0,39.78-.48c0,0,4.61,0,6.93-1.06s8.49-3.34,11.1-4.56,13.09-6,16.83-8.85c.38-.28.75-.58,1.13-.87,3.34-2.67,6.47-5.8,8.2-10.89,1.91-5.67,4.62-15.16,4.62-34.38" transform="translate(82.71 -88.1)" fill="none" stroke="#1d1d1b" stroke-linecap="round" stroke-linejoin="round" stroke-width="0.57"></path><path d="M187.9,210.9s9.89-2.11,12.85-3.31,3.55-1.52,4.25-2.33a18.58,18.58,0,0,0,2.61-4.86" transform="translate(82.71 -88.1)" fill="none" stroke="#1d1d1b" stroke-linecap="round" stroke-linejoin="round" stroke-width="0.57"></path><path d="M208,200.07s4.21-2.64,5.49-3.69a8,8,0,0,0,3.37-5.4,141.54,141.54,0,0,0,2.79-19.32" transform="translate(82.71 -88.1)" fill="none" stroke="#1d1d1b" stroke-linecap="round" stroke-linejoin="round" stroke-width="0.57"></path><path d="M160.54,216.06s11.72-4.87,17-7.15l.21-.1c5.11-2.23,11.85-5.29,15.13-6.91" transform="translate(82.71 -88.1)" fill="none" stroke="#1d1d1b" stroke-linecap="round" stroke-linejoin="round" stroke-width="0.57"></path><path d="M177.71,208.81a31.4,31.4,0,0,0,9.5-1.77,136.47,136.47,0,0,0,12.4-5.95" transform="translate(82.71 -88.1)" fill="none" stroke="#1d1d1b" stroke-linecap="round" stroke-linejoin="round" stroke-width="0.57"></path><path d="M177,209.19s5.84.09,9.85-1.51A91.24,91.24,0,0,0,200.69,201" transform="translate(82.71 -88.1)" fill="none" stroke="#1d1d1b" stroke-linecap="round" stroke-linejoin="round" stroke-width="0.28"></path><path d="M211.29,185.14s.9.17,1.07.81a2.16,2.16,0,0,1-.2,1.77,35.12,35.12,0,0,1-5,7.85" transform="translate(82.71 -88.1)" fill="none" stroke="#1d1d1b" stroke-linecap="round" stroke-linejoin="round" stroke-width="0.28"></path><path d="M-82.19,155.22a105.51,105.51,0,0,0,2.44,23.53,28.93,28.93,0,0,0,1.63,5.49,57.54,57.54,0,0,0,4,7.06c1.37,2.06,9.63,14.2,11.68,16.47A21.33,21.33,0,0,0-57.62,212a29,29,0,0,0,7.37,2.18c2.61.39,7.89,1.25,10.41,1.42s6.09.19,6.77.2" transform="translate(82.71 -88.1)" fill="none" stroke="#1d1d1b" stroke-linecap="round" stroke-linejoin="round" stroke-width="0.57"></path><path d="M-81.28,155.13c0,7.23.92,16.15.92,16.15s1.19,7.76,1.89,10a29.18,29.18,0,0,0,3.31,7.15c1.62,2.56,7,11,9,13.86s5.61,6.72,8.58,8.32,11.56,4.26,17.69,5" transform="translate(82.71 -88.1)" fill="none" stroke="#1d1d1b" stroke-linecap="round" stroke-linejoin="round" stroke-width="0.28"></path><path d="M192.57,176.56c.24-1.12.48-2.29.65-3.27" transform="translate(82.71 -88.1)" fill="none" stroke="#1d1d1b" stroke-linecap="round" stroke-linejoin="round" stroke-width="0.57"></path><path d="M191.56,180.93s.18-1.53.61-3.46" transform="translate(82.71 -88.1)" fill="none" stroke="#1d1d1b" stroke-linecap="round" stroke-linejoin="round" stroke-width="0.57"></path><path d="M43.5,155.19A1.91,1.91,0,0,0,45.16,157c1,.26,1,.81,1.07,1.13s.09,1.08.18,2.91A2.35,2.35,0,0,0,48,163.29s3.22.87,4.58,1.14A1.42,1.42,0,0,1,53.84,166c.09,7.8,2.07,20.06,2.59,22.64s-.47,3.23-1.83,3.95-7.73,2.6-13.61,4.13A71.15,71.15,0,0,1,27.06,199a4,4,0,0,1-3.14-1.53s-11-17.07-12.69-35.68a2.71,2.71,0,0,0-.26-.93,3.27,3.27,0,0,1-.68-1.75v-3.92" transform="translate(82.71 -88.1)" fill="none" stroke="#1d1d1b" stroke-linecap="round" stroke-linejoin="round" stroke-width="0.28"></path><path d="M25.61,202.67s-9.41-8.11-12.55-14.55" transform="translate(82.71 -88.1)" fill="none" stroke="#1d1d1b" stroke-linecap="round" stroke-linejoin="round" stroke-width="0.28"></path><path d="M10.75,183.45a69,69,0,0,1-6.23-28.23" transform="translate(82.71 -88.1)" fill="none" stroke="#1d1d1b" stroke-linecap="round" stroke-linejoin="round" stroke-width="0.28"></path><path d="M147.24,114.51a5.75,5.75,0,0,0-2-.91l-3-.6c-7.75-1.54-29.9-4-40.11-5s-27.46-1.53-36.53-1.74c-6.53-.15-22.25.22-31.36.3" transform="translate(82.71 -88.1)" fill="none" stroke="#1d1d1b" stroke-linecap="round" stroke-linejoin="round" stroke-width="0.57"></path><path d="M38.23,97.65c-8.81-.16-15.52-.32-16.6-.32a13.61,13.61,0,0,1-5.69-1.19c-1.43-.61-5.08-1.17-9.26-1.35-4-.17-13.54-.36-21-.54s-13.25,0-16.56.23l-2.14.06" transform="translate(82.71 -88.1)" fill="none" stroke="#1d1d1b" stroke-linecap="round" stroke-linejoin="round" stroke-width="0.57"></path><path d="M-70.11,130.3l.11-.07a3.56,3.56,0,0,1,.59-.28c1.73-.65,40.88-13.94,79.13-20,0,0,6.49-.92,11.59-1" transform="translate(82.71 -88.1)" fill="none" stroke="#1d1d1b" stroke-linecap="round" stroke-linejoin="round" stroke-width="0.57"></path><path d="M-74.12,155.14c0-14.79,2.48-22.83,2.48-22.83a4,4,0,0,1,1.53-2" transform="translate(82.71 -88.1)" fill="none" stroke="#1d1d1b" stroke-linecap="round" stroke-linejoin="round" stroke-width="0.57"></path><path d="M-34.54,94.54a10,10,0,0,0-2.13.65c-4,1.41-9.88,3.75-14,5.55-3.77,1.66-5,3.19-9.62,8.87-4.45,5.51-9.72,19.84-9.72,19.84s-.27.73-.31,1" transform="translate(82.71 -88.1)" fill="none" stroke="#1d1d1b" stroke-linecap="round" stroke-linejoin="round" stroke-width="0.43"></path><path d="M60.19,112.45" transform="translate(82.71 -88.1)" fill="none" stroke="#1d1d1b" stroke-linecap="round" stroke-linejoin="round" stroke-width="0.43"></path><path d="M30.92,106.05" transform="translate(82.71 -88.1)" fill="none" stroke="#1d1d1b" stroke-linecap="round" stroke-linejoin="round" stroke-width="0.57"></path><path d="M103,107c-10.21-1-27.47-1.54-36.53-1.74-7.6-.17-26.59.12-35.16.59" transform="translate(82.71 -88.1)" fill="none" stroke="#1d1d1b" stroke-linecap="round" stroke-linejoin="round" stroke-width="0.28"></path><path d="M148.35,113.86c0-.75-2.09-1.44-2.09-1.44" transform="translate(82.71 -88.1)" fill="none" stroke="#1d1d1b" stroke-linecap="round" stroke-linejoin="round" stroke-width="0.28"></path><path d="M31.43,105.88l24.81,6.55s9.1,2.47,13,3.12,13,1.09,18.61,1.24c16.26.41,50.16-1,58.07-1.74,2.4-.23,2.46-1.24,2.46-1.24" transform="translate(82.71 -88.1)" fill="none" stroke="#1d1d1b" stroke-linecap="round" stroke-linejoin="round" stroke-width="0.57"></path><path d="M-33,105c10.16-.54,34.31-1.7,56.55-1.85" transform="translate(82.71 -88.1)" fill="none" stroke="#1d1d1b" stroke-linecap="round" stroke-linejoin="round" stroke-width="0.28"></path><path d="M131.52,145.41" transform="translate(82.71 -88.1)" fill="none" stroke="#1d1d1b" stroke-linecap="round" stroke-linejoin="round" stroke-width="0.43"></path><path d="M128.5,146.4" transform="translate(82.71 -88.1)" fill="none" stroke="#1d1d1b" stroke-linecap="round" stroke-linejoin="round" stroke-width="0.43"></path><path d="M128,146.71" transform="translate(82.71 -88.1)" fill="none" stroke="#1d1d1b" stroke-linecap="round" stroke-linejoin="round" stroke-width="0.43"></path><path d="M130.44,146" transform="translate(82.71 -88.1)" fill="none" stroke="#1d1d1b" stroke-linecap="round" stroke-linejoin="round" stroke-width="0.43"></path><path d="M-65.86,155.14a4.93,4.93,0,0,0-.23-1.77h-2s-1.71.33-1.71,1.77" transform="translate(82.71 -88.1)" fill="none" stroke="#1d1d1b" stroke-linecap="round" stroke-linejoin="round" stroke-width="0.43"></path><path d="M101.49,108.06s.69.82,5.58,8.71" transform="translate(82.71 -88.1)" fill="none" stroke="#1d1d1b" stroke-linecap="round" stroke-linejoin="round" stroke-width="0.43"></path><path d="M130.35,155.15v-26.7c0-4.4,5.17-3.89,5.17-3.89l32.4,1.17s4.13.79,4.91,8.92,1.25,15.85,1.25,20.31" transform="translate(82.71 -88.1)" fill="none" stroke="#1d1d1b" stroke-linecap="round" stroke-linejoin="round" stroke-width="0.28"></path><path d="M123.11,126.68" transform="translate(82.71 -88.1)" fill="none" stroke="#1d1d1b" stroke-linecap="round" stroke-linejoin="round" stroke-width="0.43"></path><path d="M128.83,146.54" transform="translate(82.71 -88.1)" fill="none" stroke="#1d1d1b" stroke-linecap="round" stroke-linejoin="round" stroke-width="0.43"></path><path d="M45.54,101.27a2.5,2.5,0,0,1-2.38,1.62h-4a2.47,2.47,0,0,1-2.53-2.4,2.39,2.39,0,0,1,.28-1.1s5.18-6.79,8.88-9" transform="translate(82.71 -88.1)" fill="none" stroke="#1d1d1b" stroke-linecap="round" stroke-linejoin="round" stroke-width="0.57"></path><path d="M51,98.41c-1.09,2.57-1.83,2.66-1.83,2.66l-9.62.58A1.75,1.75,0,0,1,37.8,100a2,2,0,0,1,0-.35,17.33,17.33,0,0,1,3.92-5.76c3.09-3.24,6-5.61,12-5.15,0,0,1.35-.25-.39,3.78Z" transform="translate(82.71 -88.1)" fill="none" stroke="#1d1d1b" stroke-linecap="round" stroke-linejoin="round" stroke-width="0.57"></path><path d="M127.55,125.09c0-4.53,4.46-4.06,4.46-4.06" transform="translate(82.71 -88.1)" fill="none" stroke="#1d1d1b" stroke-linecap="round" stroke-linejoin="round" stroke-width="0.43"></path><path d="M127.55,155" transform="translate(82.71 -88.1)" fill="none" stroke="#1d1d1b" stroke-linecap="round" stroke-linejoin="round" stroke-width="0.43"></path><path d="M59.29,120.35s37.65,2.14,68.22,4.2" transform="translate(82.71 -88.1)" fill="none" stroke="#1d1d1b" stroke-linecap="round" stroke-linejoin="round" stroke-width="0.28"></path><path d="M127.55,155.15V125.09c0-4.53,4.46-4.06,4.46-4.06L173,122.57a1.59,1.59,0,0,1,1.39,1.28c.29,1.22,3.14,11.56,3.14,31.14" transform="translate(82.71 -88.1)" fill="none" stroke="#1d1d1b" stroke-linecap="round" stroke-linejoin="round" stroke-width="0.57"></path><path d="M24.72,107.32s30.57,8.72,32,9.05,2.69,1.08,1.83,5.44c-.9,4.57-3.08,10.35-3.08,33.34" transform="translate(82.71 -88.1)" fill="none" stroke="#1d1d1b" stroke-linecap="round" stroke-linejoin="round" stroke-width="0.57"></path><path d="M-46.71,117.79c-6.54,1.35-12.18-.08-13.3-3.67-1.28-4.14,4-9.6,11.74-12.17a24.39,24.39,0,0,1,7.51-1.29" transform="translate(82.71 -88.1)" fill="none" stroke="#1d1d1b" stroke-linecap="round" stroke-linejoin="round" stroke-width="0.28"></path><path d="M-38.93,108.41a12.48,12.48,0,0,1-4,5.32c-3.85,3.06-8.39,3.59-10.15,1.18s-.08-6.86,3.77-9.92,8.39-3.59,10.15-1.18a3.4,3.4,0,0,1,.38.67" transform="translate(82.71 -88.1)" fill="none" stroke="#1d1d1b" stroke-linecap="round" stroke-linejoin="round" stroke-width="0.28"></path><path d="M-37.44,108.58a15.65,15.65,0,0,1-4.8,6.14,15.83,15.83,0,0,1-5.56,2.92" transform="translate(82.71 -88.1)" fill="none" stroke="#1d1d1b" stroke-linecap="round" stroke-linejoin="round" stroke-width="0.28"></path><path d="M-39.4,101.17a4.23,4.23,0,0,1,1.79,1.39,4.54,4.54,0,0,1,.81,2.14" transform="translate(82.71 -88.1)" fill="none" stroke="#1d1d1b" stroke-linecap="round" stroke-linejoin="round" stroke-width="0.28"></path><path d="M-34.67,108.41l-5.94-.38a8.72,8.72,0,0,1,.53-3.25l5.92.48" transform="translate(82.71 -88.1)" fill="none" stroke="#1d1d1b" stroke-linecap="round" stroke-linejoin="round" stroke-width="0.28"></path><path d="M-40.46,105a2.33,2.33,0,0,0-2.07,1.42" transform="translate(82.71 -88.1)" fill="none" stroke="#1d1d1b" stroke-linecap="round" stroke-linejoin="round" stroke-width="0.28"></path><path d="M-42.89,106.43s-6.32,1.76-9,6.52" transform="translate(82.71 -88.1)" fill="none" stroke="#1d1d1b" stroke-linecap="round" stroke-linejoin="round" stroke-width="0.28"></path><path d="M-42.67,106.43a1.16,1.16,0,0,0,.69,1.12" transform="translate(82.71 -88.1)" fill="none" stroke="#1d1d1b" stroke-linecap="round" stroke-linejoin="round" stroke-width="0.28"></path><path d="M-40.64,106.29A8.5,8.5,0,0,1-42.3,108c-1.06.84-3.63,4-7.58,5.33" transform="translate(82.71 -88.1)" fill="none" stroke="#1d1d1b" stroke-linecap="round" stroke-linejoin="round" stroke-width="0.28"></path><path d="M-53.4,113.37s3.26.54,9.7-.72" transform="translate(82.71 -88.1)" fill="none" stroke="#1d1d1b" stroke-linecap="round" stroke-linejoin="round" stroke-width="0.28"></path><polyline points="39.95 25.09 39.4 24.39 39.54 23.54 41.56 23.47" fill="none" stroke="#1d1d1b" stroke-linecap="round" stroke-linejoin="round" stroke-width="0.28"></polyline><line x1="40.06" y1="17.81" x2="34.41" y2="16.53" fill="none" stroke="#1d1d1b" stroke-linecap="round" stroke-linejoin="round" stroke-width="0.28"></line><path d="M-34.53,103.69c1.82,3.64-1.39,9.14-7.17,12.27s-11.95,2.73-13.77-.92,1.38-9.14,7.16-12.28S-36.36,100-34.53,103.69Z" transform="translate(82.71 -88.1)" fill="none" stroke="#1d1d1b" stroke-linecap="round" stroke-linejoin="round" stroke-width="0.57" opacity="0.5"></path><path d="M-34.53,103.69c1.82,3.64-1.39,9.14-7.17,12.27s-11.95,2.73-13.77-.92,1.38-9.14,7.16-12.28S-36.36,100-34.53,103.69Z" transform="translate(82.71 -88.1)" fill="none" stroke="#1d1d1b" stroke-linecap="round" stroke-linejoin="round" stroke-width="0.57"></path><path d="M189,123.05a9.62,9.62,0,0,1-.27-1.13,21.34,21.34,0,0,1-.6-4.35,12.61,12.61,0,0,1,.89-3.14" transform="translate(82.71 -88.1)" fill="none" stroke="#1d1d1b" stroke-linecap="round" stroke-linejoin="round" stroke-width="0.57"></path><path d="M106.59,99.78" transform="translate(82.71 -88.1)" fill="none" stroke="#1d1d1b" stroke-linecap="round" stroke-linejoin="round" stroke-width="0.43"></path><path d="M102.26,108.06s4.27-4.89,4.27-8.09c0,0,.17-1-2.6-1" transform="translate(82.71 -88.1)" fill="none" stroke="#1d1d1b" stroke-linecap="round" stroke-linejoin="round" stroke-width="0.43"></path><path d="M-32.67,94.53c-2.33.9-7.63,3-8.86,3.41a5,5,0,0,1-2.72.32l-.21-.08" transform="translate(82.71 -88.1)" fill="none" stroke="#1d1d1b" stroke-linecap="round" stroke-linejoin="round" stroke-width="0.43"></path><path d="M29.78,106S28.55,106,22,97.34" transform="translate(82.71 -88.1)" fill="none" stroke="#1d1d1b" stroke-linecap="round" stroke-linejoin="round" stroke-width="0.57"></path><path d="M171.12,94.53s.23-1.3-22.35-1.3c-21.9,0-21.84,1-21.84,1" transform="translate(82.71 -88.1)" fill="none" stroke="#1d1d1b" stroke-linecap="round" stroke-linejoin="round" stroke-width="0.57"></path><path d="M1.09,144.47s-51.36,2.5-70.18,3.84c0,0-1.06.1-1.37-.28a1.74,1.74,0,0,1-.47-1.41,74.73,74.73,0,0,1,1.75-13,4.87,4.87,0,0,1,2.88-3.25c2.32-.85,14.12-4.51,18.3-5.78" transform="translate(82.71 -88.1)" fill="none" stroke="#1d1d1b" stroke-linecap="round" stroke-linejoin="round" stroke-width="0.28"></path><path d="M-63.93,131.57s-.11,1.13-.22,2.48-1.37,11.55-1.5,12.23a1.42,1.42,0,0,1-1.33,1.3c-.85.09-2.42.16-2.42.16s-1-.05-1-1.38a86.58,86.58,0,0,1,1.5-11.78s.42-2.47,2.14-3L-65,131s.71-.22.93,0S-63.92,131.36-63.93,131.57Z" transform="translate(82.71 -88.1)" fill="none" stroke="#1d1d1b" stroke-linecap="round" stroke-linejoin="round" stroke-width="0.57"></path><path d="M-63.83,130.65s4-1.72,9.21-3.72" transform="translate(82.71 -88.1)" fill="none" stroke="#1d1d1b" stroke-linecap="round" stroke-linejoin="round" stroke-width="0.28"></path><path d="M103.26,106.89s16.34,1.26,25.83,2.61,14.3,2.13,17.17,2.92" transform="translate(82.71 -88.1)" fill="none" stroke="#1d1d1b" stroke-linecap="round" stroke-linejoin="round" stroke-width="0.28"></path><path d="M61.47,97.68c9.8-.44,26.71-1.17,32.75-1.37,8.72-.29,17.66-.17,21.73.58" transform="translate(82.71 -88.1)" fill="none" stroke="#1d1d1b" stroke-linecap="round" stroke-linejoin="round" stroke-width="0.57"></path><path d="M206,110.81c0-.59-2.42-1-4.62-1.35s-16.88-2-16.88-2-3.86-.53-3.86,0,4,.87,4,.87,17.33,2.16,21,2.67C205.64,111,206,111.1,206,110.81Z" transform="translate(82.71 -88.1)" fill="none" stroke="#1d1d1b" stroke-linecap="round" stroke-linejoin="round" stroke-width="0.57"></path><path d="M191.8,123.41a5.2,5.2,0,0,1-.26-1,3.61,3.61,0,0,1,0-1.14,3.81,3.81,0,0,0-.27-1.86c-.31-.84-5-10.89-5-10.89" transform="translate(82.71 -88.1)" fill="none" stroke="#1d1d1b" stroke-linecap="round" stroke-linejoin="round" stroke-width="0.57"></path><path d="M205.22,111s4.47,8,6.27,15.22,3.71,13.23,3.71,28.88" transform="translate(82.71 -88.1)" fill="none" stroke="#1d1d1b" stroke-linecap="round" stroke-linejoin="round" stroke-width="0.57"></path><path d="M172.65,122.46" transform="translate(82.71 -88.1)" fill="none" stroke="#1d1d1b" stroke-linecap="round" stroke-linejoin="round" stroke-width="0.43"></path><path d="M205,124.47s-15.34-1.33-20.68-1.48-10.08-.35-10.08-.35l.07.48s4.74.21,10.08.35S205.07,125,205.07,125Z" transform="translate(82.71 -88.1)" fill="none" stroke="#1d1d1b" stroke-linecap="round" stroke-linejoin="round" stroke-width="0.57"></path><path d="M195.38,124.18s.31.92.4,1.06a.79.79,0,0,0,.61.32l10.63.9s.79.06.55-.84l-.23-.9a1,1,0,0,0-1-.7c-.84,0-8.57-.72-10.48-.87,0,0-.62.06-.56.47" transform="translate(82.71 -88.1)" fill="none" stroke="#1d1d1b" stroke-linecap="round" stroke-linejoin="round" stroke-width="0.57"></path><path d="M196,124.23l.18.58a.51.51,0,0,0,.5.3c.39,0,2,.08,2,.08s.36,0,.31-.29a2.64,2.64,0,0,0-.15-.46" transform="translate(82.71 -88.1)" fill="none" stroke="#1d1d1b" stroke-linecap="round" stroke-linejoin="round" stroke-width="0.43"></path><path d="M203.58,124.91l.13.57a.49.49,0,0,0,.4.27c.28,0,2,.08,2,.08s.32,0,.29-.27a3.26,3.26,0,0,0-.16-.61.45.45,0,0,0-.36-.24c-.28,0-.86,0-.86,0" transform="translate(82.71 -88.1)" fill="none" stroke="#1d1d1b" stroke-linecap="round" stroke-linejoin="round" stroke-width="0.43"></path><path d="M192,123.88a114,114,0,0,1,4.34,31.28" transform="translate(82.71 -88.1)" fill="none" stroke="#1d1d1b" stroke-linecap="round" stroke-linejoin="round" stroke-width="0.57"></path><line x1="278.48" y1="56.38" x2="266.06" y2="55.95" fill="none" stroke="#1d1d1b" stroke-linecap="round" stroke-linejoin="round" stroke-width="0.57"></line><line x1="265.89" y1="56.03" x2="265.86" y2="67.04" fill="none" stroke="#1d1d1b" stroke-linecap="round" stroke-linejoin="round" stroke-width="0.28"></line><path d="M181.17,155.08v-13.9s0-1,.76-1h1.26v4" transform="translate(82.71 -88.1)" fill="none" stroke="#1d1d1b" stroke-linecap="round" stroke-linejoin="round" stroke-width="0.57"></path><path d="M195.78,144.36a2.2,2.2,0,0,1-1.6-1.92c-.23-1.63-.64-3.83-.64-3.83a1.54,1.54,0,0,1,.1-.63" transform="translate(82.71 -88.1)" fill="none" stroke="#1d1d1b" stroke-linecap="round" stroke-linejoin="round" stroke-width="0.43"></path><path d="M194.12,142.24,190,142a1.94,1.94,0,0,1-1.28-.69c-.44-.61-.87-1.11-.87-1.11a1.35,1.35,0,0,0-1-.46l-2.7-.2a1.12,1.12,0,0,1-1.1-1c-.12-1.05-1-7.82-2.56-14.64" transform="translate(82.71 -88.1)" fill="none" stroke="#1d1d1b" stroke-linecap="round" stroke-linejoin="round" stroke-width="0.57"></path><path d="M174.33,123.46l15,1.18s.72-.16,1.9,3.79" transform="translate(82.71 -88.1)" fill="none" stroke="#1d1d1b" stroke-linecap="round" stroke-linejoin="round" stroke-width="0.57"></path><line x1="272" y1="35.69" x2="272.01" y2="36.54" fill="none" stroke="#1d1d1b" stroke-linecap="round" stroke-linejoin="round" stroke-width="0.43"></line><path d="M182.52,127.82a68.31,68.31,0,0,1,8.95.74,1,1,0,0,1,.57.5c0,.31-.48.31-.48.31s-6-.49-9-.85" transform="translate(82.71 -88.1)" fill="none" stroke="#1d1d1b" stroke-linecap="round" stroke-linejoin="round" stroke-width="0.43"></path><path d="M183.25,133.08l9.1.6s.9,0,.79-.28c-.2-.46-.86-.55-.86-.55-2.36-.23-9.07-.43-9.07-.43" transform="translate(82.71 -88.1)" fill="none" stroke="#1d1d1b" stroke-linecap="round" stroke-linejoin="round" stroke-width="0.43"></path><path d="M184.06,137.65l9.26.32s.78,0,.79-.26c0-.42-1-.6-1-.6-1.41-.13-9.21-.17-9.21-.17" transform="translate(82.71 -88.1)" fill="none" stroke="#1d1d1b" stroke-linecap="round" stroke-linejoin="round" stroke-width="0.43"></path><path d="M190.61,126s1.59.1,1.91.19" transform="translate(82.71 -88.1)" fill="none" stroke="#1d1d1b" stroke-linecap="round" stroke-linejoin="round" stroke-width="0.43"></path><path d="M190,155.14s0-3.72,0-4.18a.67.67,0,0,1,.74-.74c.5,0,3.2,0,3.2,0a.76.76,0,0,1,.61.76v4.19" transform="translate(82.71 -88.1)" fill="none" stroke="#1d1d1b" stroke-linecap="round" stroke-linejoin="round" stroke-width="0.28"></path><path d="M30.18,106.1s26.23,7.58,30.51,8.63a132,132,0,0,0,20.17,3c5.88.21,42.64,1.4,50.55,1.58s53.45,2.42,57.29,2.6" transform="translate(82.71 -88.1)" fill="none" stroke="#1d1d1b" stroke-linecap="round" stroke-linejoin="round" stroke-width="0.28"></path><path d="M51.45,97.47s40.3,1,44.83,1.18,13.43,1.13,18.74-1.44,4.58-2.39,6.28-2.66,8.06-.48,10.54-.48,31.9,0,39.78.48c0,0,4.61,0,6.93,1.06s8.49,3.34,11.1,4.56,13.09,6,16.83,8.85l1.13.88c3.34,2.67,6.47,5.79,8.2,10.89,1.91,5.66,4.62,15.16,4.62,34.37" transform="translate(82.71 -88.1)" fill="none" stroke="#1d1d1b" stroke-linecap="round" stroke-linejoin="round" stroke-width="0.57"></path><path d="M187.9,99.39s9.89,2.11,12.85,3.31,3.55,1.53,4.25,2.33a18.57,18.57,0,0,1,2.61,4.87" transform="translate(82.71 -88.1)" fill="none" stroke="#1d1d1b" stroke-linecap="round" stroke-linejoin="round" stroke-width="0.57"></path><path d="M208,110.23s4.21,2.64,5.49,3.68a8,8,0,0,1,3.37,5.41,141.27,141.27,0,0,1,2.79,19.32" transform="translate(82.71 -88.1)" fill="none" stroke="#1d1d1b" stroke-linecap="round" stroke-linejoin="round" stroke-width="0.57"></path><path d="M160.54,94.23s11.72,4.88,17,7.16l.21.09c5.11,2.24,11.85,5.29,15.13,6.92" transform="translate(82.71 -88.1)" fill="none" stroke="#1d1d1b" stroke-linecap="round" stroke-linejoin="round" stroke-width="0.57"></path><path d="M177.71,101.48a31.4,31.4,0,0,1,9.5,1.77,135.91,135.91,0,0,1,12.4,6" transform="translate(82.71 -88.1)" fill="none" stroke="#1d1d1b" stroke-linecap="round" stroke-linejoin="round" stroke-width="0.57"></path><path d="M177,101.1s5.84-.08,9.85,1.51a90.36,90.36,0,0,1,13.83,6.69" transform="translate(82.71 -88.1)" fill="none" stroke="#1d1d1b" stroke-linecap="round" stroke-linejoin="round" stroke-width="0.28"></path><path d="M211.29,125.16s.9-.18,1.07-.82a2.16,2.16,0,0,0-.2-1.77,35.42,35.42,0,0,0-5-7.84" transform="translate(82.71 -88.1)" fill="none" stroke="#1d1d1b" stroke-linecap="round" stroke-linejoin="round" stroke-width="0.28"></path><path d="M-82.19,155.08a105.51,105.51,0,0,1,2.44-23.53,28.72,28.72,0,0,1,1.63-5.49,56.1,56.1,0,0,1,4-7.06c1.37-2.06,9.63-14.21,11.68-16.47a21.07,21.07,0,0,1,4.79-4.18,28.64,28.64,0,0,1,7.37-2.18c2.61-.4,7.89-1.25,10.41-1.43s6.09-.19,6.77-.2" transform="translate(82.71 -88.1)" fill="none" stroke="#1d1d1b" stroke-linecap="round" stroke-linejoin="round" stroke-width="0.57"></path><path d="M-81.28,155.16c0-7.23.92-16.15.92-16.15s1.19-7.75,1.89-10a29.18,29.18,0,0,1,3.31-7.15c1.62-2.55,7-11,9-13.85s5.61-6.73,8.58-8.32,11.56-4.26,17.69-5" transform="translate(82.71 -88.1)" fill="none" stroke="#1d1d1b" stroke-linecap="round" stroke-linejoin="round" stroke-width="0.28"></path><path d="M192.57,133.74c.24,1.12.48,2.28.65,3.27" transform="translate(82.71 -88.1)" fill="none" stroke="#1d1d1b" stroke-linecap="round" stroke-linejoin="round" stroke-width="0.57"></path><path d="M191.56,129.37s.18,1.53.61,3.45" transform="translate(82.71 -88.1)" fill="none" stroke="#1d1d1b" stroke-linecap="round" stroke-linejoin="round" stroke-width="0.57"></path><path d="M43.5,155.11a1.91,1.91,0,0,1,1.66-1.83c1-.27,1-.82,1.07-1.14s.09-1.07.18-2.9A2.37,2.37,0,0,1,48,147s3.22-.87,4.58-1.13a1.43,1.43,0,0,0,1.22-1.56c.09-7.8,2.07-20,2.59-22.64s-.47-3.22-1.83-4-7.73-2.6-13.61-4.12a70.61,70.61,0,0,0-13.93-2.27,4,4,0,0,0-3.14,1.54s-11,17.07-12.69,35.67a2.79,2.79,0,0,1-.26.94,3.2,3.2,0,0,0-.68,1.74v3.92" transform="translate(82.71 -88.1)" fill="none" stroke="#1d1d1b" stroke-linecap="round" stroke-linejoin="round" stroke-width="0.28"></path><path d="M25.61,107.63" transform="translate(82.71 -88.1)" fill="none" stroke="#1d1d1b" stroke-linecap="round" stroke-linejoin="round" stroke-width="0.28"></path><path d="M4.52,155.08a69,69,0,0,1,6.23-28.24s1.55-3.36,2.31-4.66c0,0,4.94-10.25,12.55-14.55" transform="translate(82.71 -88.1)" fill="none" stroke="#1d1d1b" stroke-linecap="round" stroke-linejoin="round" stroke-width="0.28"></path><path d="M12.62,189.68a13.42,13.42,0,0,0-.3,3.84" transform="translate(82.71 -88.1)" fill="none" stroke="#1d1d1b" stroke-linecap="round" stroke-linejoin="round" stroke-width="0.28"></path><line x1="94.38" y1="101.01" x2="95.25" y2="100.97" fill="none" stroke="#1d1d1b" stroke-linecap="round" stroke-linejoin="round" stroke-width="0.28"></line><path d="M1.18,165.5s1.33,1,1.8,1.31a1.65,1.65,0,0,1,.87,1.28c.12.66,2.37,11.35,5.2,16.19a4.74,4.74,0,0,1,.7,1.92c.06,1,.33,3.9.3,4.62" transform="translate(82.71 -88.1)" fill="none" stroke="#1d1d1b" stroke-linecap="round" stroke-linejoin="round" stroke-width="0.28"></path><path d="M1.25,144.28l1.88-1.18A2.43,2.43,0,0,0,4,141.67a62.23,62.23,0,0,1,14.47-30.33" transform="translate(82.71 -88.1)" fill="none" stroke="#1d1d1b" stroke-linecap="round" stroke-linejoin="round" stroke-width="0.28"></path><path d="M129.2,108.48s1.36-1.2,2.73-2.33a21.34,21.34,0,0,1,8-4.24c3.44-1,13-1.33,18.94,0A170.27,170.27,0,0,1,187,111.09" transform="translate(82.71 -88.1)" fill="none" stroke="#1d1d1b" stroke-linecap="round" stroke-linejoin="round" stroke-width="0.28"></path><path d="M129.2,201.42s1.36,1.19,2.73,2.32a21.2,21.2,0,0,0,8,4.24c3.44,1,13,1.34,18.94,0A169.29,169.29,0,0,0,187,198.8" transform="translate(82.71 -88.1)" fill="none" stroke="#1d1d1b" stroke-linecap="round" stroke-linejoin="round" stroke-width="0.28"></path><path d="M149.66,196.55s19.58-.76,36.58-4.09" transform="translate(82.71 -88.1)" fill="none" stroke="#1d1d1b" stroke-linecap="round" stroke-linejoin="round" stroke-width="0.28"></path><path d="M149.66,113.5s19.58.75,36.58,4.09" transform="translate(82.71 -88.1)" fill="none" stroke="#1d1d1b" stroke-linecap="round" stroke-linejoin="round" stroke-width="0.28"></path></svg>